<svg width="383" height="472" viewBox="0 0 383 472" fill="none" xmlns="http://www.w3.org/2000/svg">
<mask id="path-1-inside-1_2_36" fill="white">
<path d="M353.972 33.8834V130.383L348.472 260.883C344.805 303.717 335.872 392.683 329.472 405.883V417.383C333.805 410.883 342.572 396.883 342.972 392.883C343.372 388.883 347.805 362.883 349.972 350.383C352.639 331.217 358.072 290.783 358.472 282.383C358.872 273.983 361.639 237.217 362.972 219.883L364.472 169.883C364.139 154.217 363.372 121.183 362.972 114.383L359.972 63.3834L353.972 33.8834Z"/>
<path d="M31.0039 33.8834V130.383L36.5039 260.883C40.1705 303.717 49.1039 392.683 55.5039 405.883V417.383C51.1705 410.883 42.4039 396.883 42.0039 392.883C41.6039 388.883 37.1705 362.883 35.0039 350.383C32.3372 331.217 26.9039 290.783 26.5039 282.383C26.1039 273.983 23.3372 237.217 22.0039 219.883L20.5039 169.883C20.8372 154.217 21.6039 121.183 22.0039 114.383L25.0039 63.3834L31.0039 33.8834Z"/>
<path d="M86.5 47.2823C73.3 47.2823 69.5033 60.9103 69.5033 66.7436C67.9033 49.9436 76.8366 41.0769 81.5033 38.7436H197.503C206.337 38.4102 227.603 37.9436 242.003 38.7436C260.003 39.7436 273.72 39.9696 281 38.7436C309.997 33.8601 307.67 57.9103 311.003 66.7436L314 103.36V134.5L311.003 108.883C307.837 103.55 310.3 84.0835 301.5 64.8835C292.7 45.6835 251.003 45.5501 245.503 45.8835L228.004 45.8834L157.003 45.8835C138.837 46.3835 99.7 47.2823 86.5 47.2823Z"/>
<path d="M71.5033 175.244C72.67 188.91 75.4033 221.044 77.0033 240.244C77.9881 252.062 83.0951 257.454 88.5033 259.883C69.3033 258.395 63.17 238.837 62.5033 229.244V213.244L57.5033 167.744L56.0033 110.744C56.17 91.5769 56.7033 50.3436 57.5033 38.7436C58.3033 27.1436 65.8367 21.5769 69.5033 20.2436H159.003C178.003 19.4102 221.203 17.8436 242.003 18.2436C262.803 18.6436 313.833 15.6934 318.5 22.3601L328 42.8601L325.5 184C328 196 325.5 223 323 229.244C319.649 237.612 317.42 246.052 309.466 251.677C303.435 255.942 296.953 258.877 293.503 259.883C297.903 249.483 318.833 226.833 314 205.5V134.5V103.36L311.003 66.7436C307.67 57.9103 309.997 33.8601 281 38.7436C273.72 39.9696 260.003 39.7436 242.003 38.7436C227.603 37.9436 206.337 38.4102 197.503 38.7436H81.5033C76.8366 41.0769 67.9033 49.9436 69.5033 66.7436L68.0033 85.2436C68.3367 92.7436 68.8033 108.344 68.0033 110.744C67.2033 113.144 70.0033 154.744 71.5033 175.244Z"/>
<path d="M333.972 471.383C350.472 469.55 383.372 458.583 382.972 429.383C382.572 400.183 381.139 389.217 380.472 387.383C380.472 430.583 350.806 441.717 335.972 441.883L308.472 444.383H74.5036L47.0036 441.883C32.1703 441.717 2.50361 430.583 2.50361 387.383C1.83696 389.217 0.403608 400.183 0.00361434 429.383C-0.39638 458.583 32.5036 469.55 49.0036 471.383H333.972Z"/>
<path fill-rule="evenodd" clip-rule="evenodd" d="M380.472 31.3834C381.139 21.8834 373.172 2.48344 335.972 0.883443C307.779 -0.329171 242.002 -0.0866698 191.488 0.392053C140.974 -0.0866698 75.1969 -0.329171 47.0036 0.883443C9.8036 2.48344 1.83696 21.8834 2.50361 31.3834V387.383C2.50361 430.583 32.1703 441.717 47.0036 441.883L74.5036 444.383H308.472L335.972 441.883C350.806 441.717 380.472 430.583 380.472 387.383V31.3834ZM345.472 11.8834C343.472 7.48342 329.639 5.71676 322.972 5.38342H264.004H120.972H62.0039C55.3372 5.71676 41.5039 7.48342 39.5039 11.8834C37.5039 16.2834 33.0039 28.3834 31.0039 33.8834V130.383L36.5039 260.883C40.1705 303.717 49.1039 392.683 55.5039 405.883V417.383C51.1705 410.883 42.4039 396.883 42.0039 392.883C41.6039 388.883 37.1705 362.883 35.0039 350.383C32.3372 331.217 26.9039 290.783 26.5039 282.383C26.1039 273.983 23.3372 237.217 22.0039 219.883L20.5039 169.883C20.8372 154.217 21.6039 121.183 22.0039 114.383L25.0039 63.3834L31.0039 33.8834C33.0039 28.3834 37.5039 16.2834 39.5039 11.8834C41.5039 7.48342 55.3372 5.71676 62.0039 5.38342H120.972H264.004H322.972C329.639 5.71676 343.472 7.48342 345.472 11.8834C347.472 16.2834 351.972 28.3834 353.972 33.8834L359.972 63.3834L362.972 114.383C363.372 121.183 364.139 154.217 364.472 169.883L362.972 219.883C361.639 237.217 358.872 273.983 358.472 282.383C358.072 290.783 352.639 331.217 349.972 350.383C347.805 362.883 343.372 388.883 342.972 392.883C342.572 396.883 333.805 410.883 329.472 417.383V405.883C335.872 392.683 344.805 303.717 348.472 260.883L353.972 130.383V33.8834C351.972 28.3834 347.472 16.2834 345.472 11.8834ZM293.503 259.883H102.003C99.973 259.883 94.0781 262.388 88.5033 259.883C69.3033 258.395 63.17 238.837 62.5033 229.244V213.244L57.5033 167.744L56.0033 110.744C56.17 91.5769 56.7033 50.3436 57.5033 38.7436C58.3033 27.1436 65.8367 21.5769 69.5033 20.2436H159.003C178.003 19.4102 221.203 17.8436 242.003 18.2436C262.803 18.6436 313.833 15.6934 318.5 22.3601L328 42.8601L325.5 184C328 196 325.5 223 323 229.244C319.649 237.612 317.42 246.052 309.466 251.677C303.435 255.942 296.953 258.877 293.503 259.883Z"/>
<path d="M121 312C121 296.536 133.536 284 149 284H232C247.464 284 260 296.536 260 312V383C260 398.464 247.464 411 232 411H149C133.536 411 121 398.464 121 383V312Z"/>
</mask>
<path d="M353.972 33.8834V130.383L348.472 260.883C344.805 303.717 335.872 392.683 329.472 405.883V417.383C333.805 410.883 342.572 396.883 342.972 392.883C343.372 388.883 347.805 362.883 349.972 350.383C352.639 331.217 358.072 290.783 358.472 282.383C358.872 273.983 361.639 237.217 362.972 219.883L364.472 169.883C364.139 154.217 363.372 121.183 362.972 114.383L359.972 63.3834L353.972 33.8834Z" fill="#363636"/>
<path d="M31.0039 33.8834V130.383L36.5039 260.883C40.1705 303.717 49.1039 392.683 55.5039 405.883V417.383C51.1705 410.883 42.4039 396.883 42.0039 392.883C41.6039 388.883 37.1705 362.883 35.0039 350.383C32.3372 331.217 26.9039 290.783 26.5039 282.383C26.1039 273.983 23.3372 237.217 22.0039 219.883L20.5039 169.883C20.8372 154.217 21.6039 121.183 22.0039 114.383L25.0039 63.3834L31.0039 33.8834Z" fill="#363636"/>
<path d="M86.5 47.2823C73.3 47.2823 69.5033 60.9103 69.5033 66.7436C67.9033 49.9436 76.8366 41.0769 81.5033 38.7436H197.503C206.337 38.4102 227.603 37.9436 242.003 38.7436C260.003 39.7436 273.72 39.9696 281 38.7436C309.997 33.8601 307.67 57.9103 311.003 66.7436L314 103.36V134.5L311.003 108.883C307.837 103.55 310.3 84.0835 301.5 64.8835C292.7 45.6835 251.003 45.5501 245.503 45.8835L228.004 45.8834L157.003 45.8835C138.837 46.3835 99.7 47.2823 86.5 47.2823Z" fill="black"/>
<path d="M71.5033 175.244C72.67 188.91 75.4033 221.044 77.0033 240.244C77.9881 252.062 83.0951 257.454 88.5033 259.883C69.3033 258.395 63.17 238.837 62.5033 229.244V213.244L57.5033 167.744L56.0033 110.744C56.17 91.5769 56.7033 50.3436 57.5033 38.7436C58.3033 27.1436 65.8367 21.5769 69.5033 20.2436H159.003C178.003 19.4102 221.203 17.8436 242.003 18.2436C262.803 18.6436 313.833 15.6934 318.5 22.3601L328 42.8601L325.5 184C328 196 325.5 223 323 229.244C319.649 237.612 317.42 246.052 309.466 251.677C303.435 255.942 296.953 258.877 293.503 259.883C297.903 249.483 318.833 226.833 314 205.5V134.5V103.36L311.003 66.7436C307.67 57.9103 309.997 33.8601 281 38.7436C273.72 39.9696 260.003 39.7436 242.003 38.7436C227.603 37.9436 206.337 38.4102 197.503 38.7436H81.5033C76.8366 41.0769 67.9033 49.9436 69.5033 66.7436L68.0033 85.2436C68.3367 92.7436 68.8033 108.344 68.0033 110.744C67.2033 113.144 70.0033 154.744 71.5033 175.244Z" fill="#363636"/>
<path d="M333.972 471.383C350.472 469.55 383.372 458.583 382.972 429.383C382.572 400.183 381.139 389.217 380.472 387.383C380.472 430.583 350.806 441.717 335.972 441.883L308.472 444.383H74.5036L47.0036 441.883C32.1703 441.717 2.50361 430.583 2.50361 387.383C1.83696 389.217 0.403608 400.183 0.00361434 429.383C-0.39638 458.583 32.5036 469.55 49.0036 471.383H333.972Z" fill="#5A5A5A"/>
<path fill-rule="evenodd" clip-rule="evenodd" d="M380.472 31.3834C381.139 21.8834 373.172 2.48344 335.972 0.883443C307.779 -0.329171 242.002 -0.0866698 191.488 0.392053C140.974 -0.0866698 75.1969 -0.329171 47.0036 0.883443C9.8036 2.48344 1.83696 21.8834 2.50361 31.3834V387.383C2.50361 430.583 32.1703 441.717 47.0036 441.883L74.5036 444.383H308.472L335.972 441.883C350.806 441.717 380.472 430.583 380.472 387.383V31.3834ZM345.472 11.8834C343.472 7.48342 329.639 5.71676 322.972 5.38342H264.004H120.972H62.0039C55.3372 5.71676 41.5039 7.48342 39.5039 11.8834C37.5039 16.2834 33.0039 28.3834 31.0039 33.8834V130.383L36.5039 260.883C40.1705 303.717 49.1039 392.683 55.5039 405.883V417.383C51.1705 410.883 42.4039 396.883 42.0039 392.883C41.6039 388.883 37.1705 362.883 35.0039 350.383C32.3372 331.217 26.9039 290.783 26.5039 282.383C26.1039 273.983 23.3372 237.217 22.0039 219.883L20.5039 169.883C20.8372 154.217 21.6039 121.183 22.0039 114.383L25.0039 63.3834L31.0039 33.8834C33.0039 28.3834 37.5039 16.2834 39.5039 11.8834C41.5039 7.48342 55.3372 5.71676 62.0039 5.38342H120.972H264.004H322.972C329.639 5.71676 343.472 7.48342 345.472 11.8834C347.472 16.2834 351.972 28.3834 353.972 33.8834L359.972 63.3834L362.972 114.383C363.372 121.183 364.139 154.217 364.472 169.883L362.972 219.883C361.639 237.217 358.872 273.983 358.472 282.383C358.072 290.783 352.639 331.217 349.972 350.383C347.805 362.883 343.372 388.883 342.972 392.883C342.572 396.883 333.805 410.883 329.472 417.383V405.883C335.872 392.683 344.805 303.717 348.472 260.883L353.972 130.383V33.8834C351.972 28.3834 347.472 16.2834 345.472 11.8834ZM293.503 259.883H102.003C99.973 259.883 94.0781 262.388 88.5033 259.883C69.3033 258.395 63.17 238.837 62.5033 229.244V213.244L57.5033 167.744L56.0033 110.744C56.17 91.5769 56.7033 50.3436 57.5033 38.7436C58.3033 27.1436 65.8367 21.5769 69.5033 20.2436H159.003C178.003 19.4102 221.203 17.8436 242.003 18.2436C262.803 18.6436 313.833 15.6934 318.5 22.3601L328 42.8601L325.5 184C328 196 325.5 223 323 229.244C319.649 237.612 317.42 246.052 309.466 251.677C303.435 255.942 296.953 258.877 293.503 259.883Z" fill="#C4C4C4"/>
<path d="M121 312C121 296.536 133.536 284 149 284H232C247.464 284 260 296.536 260 312V383C260 398.464 247.464 411 232 411H149C133.536 411 121 398.464 121 383V312Z" fill="#D9D9D9"/>
<path d="M149.472 0.883443V1.38349L149.479 1.38339L149.472 0.883443ZM308.472 444.383V444.883H308.495L308.517 444.881L308.472 444.383ZM335.972 441.883L335.967 441.383L335.947 441.384L335.927 441.385L335.972 441.883ZM233.504 0.883443L233.496 1.38344H233.504V0.883443ZM74.5036 444.383L74.4583 444.881L74.4809 444.883H74.5036V444.383ZM47.0036 441.883L47.0489 441.385L47.0291 441.384L47.0092 441.383L47.0036 441.883ZM91.0036 259.883V259.383H90.9819L90.9603 259.385L91.0036 259.883ZM70.5036 192.883L70.0046 192.915L70.0059 192.935L70.0086 192.954L70.5036 192.883ZM67.5036 145.883L67.0038 145.896L67.004 145.906L67.0046 145.915L67.5036 145.883ZM66.5036 107.383L67.0034 107.37L67.0034 107.37L66.5036 107.383ZM68.0036 64.8834L67.5355 65.0591L68.0036 64.8834ZM88.0036 47.3834L88.0384 46.8847L88.0384 46.8847L88.0036 47.3834ZM140.504 45.8834L140.458 46.3814L140.481 46.3834H140.504V45.8834ZM70.5721 53.5L70.0772 53.4292L70.0772 53.4292L70.5721 53.5ZM322.972 5.38342L322.997 4.88405L322.985 4.88342H322.972V5.38342ZM353.972 33.8834L354.462 33.7838L354.455 33.7474L354.442 33.7126L353.972 33.8834ZM353.972 130.383L354.472 130.404L354.472 130.394V130.383H353.972ZM348.472 260.883L348.97 260.926L348.971 260.915L348.972 260.904L348.472 260.883ZM329.472 405.883L329.022 405.665L328.972 405.769V405.883H329.472ZM329.472 417.383H328.972V419.035L329.888 417.661L329.472 417.383ZM349.972 350.383L350.465 350.469L350.466 350.461L350.467 350.452L349.972 350.383ZM362.972 219.883L363.471 219.922L363.472 219.91L363.472 219.898L362.972 219.883ZM364.472 169.883L364.972 169.898L364.972 169.886L364.972 169.873L364.472 169.883ZM362.972 114.383L363.471 114.354L362.972 114.383ZM359.972 63.3834L360.471 63.3541L360.469 63.3186L360.462 63.2838L359.972 63.3834ZM62.0039 5.38342V4.88342H61.9914L61.9789 4.88405L62.0039 5.38342ZM31.0039 33.8834L30.534 33.7126L30.5213 33.7474L30.5139 33.7838L31.0039 33.8834ZM31.0039 130.383H30.5039V130.394L30.5043 130.404L31.0039 130.383ZM36.5039 260.883L36.0043 260.904L36.0048 260.915L36.0057 260.926L36.5039 260.883ZM55.5039 405.883H56.0039V405.769L55.9538 405.665L55.5039 405.883ZM55.5039 417.383L55.0878 417.661L56.0039 419.035V417.383H55.5039ZM35.0039 350.383L34.5086 350.452L34.5098 350.461L34.5112 350.469L35.0039 350.383ZM22.0039 219.883L21.5041 219.898L21.5044 219.91L21.5053 219.922L22.0039 219.883ZM20.5039 169.883L20.004 169.873L20.0037 169.886L20.0041 169.898L20.5039 169.883ZM25.0039 63.3834L24.5139 63.2838L24.5068 63.3186L24.5047 63.3541L25.0039 63.3834ZM293.503 259.883V260.383H293.575L293.643 260.363L293.503 259.883ZM311.003 66.7436L311.502 66.7028L311.496 66.6328L311.471 66.5671L311.003 66.7436ZM281 38.7436L280.917 38.2505L281 38.7436ZM242.003 38.7436L241.976 39.2428L242.003 38.7436ZM197.503 38.7436V39.2436H197.513L197.522 39.2432L197.503 38.7436ZM81.5033 38.7436V38.2436H81.3852L81.2797 38.2964L81.5033 38.7436ZM323 229.244L322.536 229.058L323 229.244ZM325.5 184L325 183.991L324.999 184.047L325.011 184.102L325.5 184ZM328 42.8601L328.5 42.869L328.502 42.7541L328.454 42.6499L328 42.8601ZM318.5 22.3601L318.954 22.1499L318.935 22.1097L318.91 22.0734L318.5 22.3601ZM159.003 20.2436V20.7436H159.014L159.025 20.7431L159.003 20.2436ZM69.5033 20.2436V19.7436H69.4153L69.3325 19.7737L69.5033 20.2436ZM56.0033 110.744L55.5034 110.739L55.5033 110.748L55.5035 110.757L56.0033 110.744ZM57.5033 167.744L57.0035 167.757L57.0041 167.778L57.0063 167.798L57.5033 167.744ZM62.5033 213.244H63.0033V213.216L63.0003 213.189L62.5033 213.244ZM62.5033 229.244H62.0033V229.261L62.0045 229.278L62.5033 229.244ZM314 103.36H314.5V103.34L314.498 103.319L314 103.36ZM191.488 0.392053L191.493 -0.108014L191.483 -0.107924L191.488 0.392053ZM309.466 251.677L309.755 252.085L309.755 252.085L309.466 251.677ZM149.472 0.383443H99.9722V1.38344H149.472V0.383443ZM308.517 444.881L336.017 442.381L335.927 441.385L308.427 443.885L308.517 444.881ZM335.978 442.383C343.497 442.299 354.743 439.44 364.116 431.145C373.506 422.835 380.972 409.109 380.972 387.383H379.972C379.972 408.857 372.605 422.298 363.453 430.397C354.285 438.51 343.281 441.301 335.967 441.383L335.978 442.383ZM48.5002 471.883H333.972V470.883H48.5002V471.883ZM233.504 1.38344H283.004V0.383443H233.504V1.38344ZM74.5489 443.885L47.0489 441.385L46.9583 442.381L74.4583 444.881L74.5489 443.885ZM47.0092 441.383C39.695 441.301 28.6909 438.51 19.5225 430.397C10.3711 422.298 3.00361 408.857 3.00361 387.383H2.00361C2.00361 409.109 9.46945 422.835 18.8598 431.145C28.233 439.44 39.4789 442.299 46.998 442.383L47.0092 441.383ZM90.9603 259.385C89.1759 259.54 85.9331 258.957 82.8894 256.377C79.8573 253.807 76.9874 249.223 75.9997 241.321L75.0075 241.445C76.0198 249.544 78.9832 254.377 82.2428 257.14C85.4908 259.893 88.9979 260.56 91.0469 260.382L90.9603 259.385ZM75.9997 241.321C75.0009 233.331 74.085 223.547 73.2515 214.587C72.4188 205.636 71.6675 197.495 70.9986 192.813L70.0086 192.954C70.6731 197.605 71.4217 205.714 72.2558 214.68C73.0889 223.636 74.0063 233.436 75.0075 241.445L75.9997 241.321ZM71.0026 192.852L68.0026 145.852L67.0046 145.915L70.0046 192.915L71.0026 192.852ZM68.0034 145.87L67.0034 107.37L66.0038 107.396L67.0038 145.896L68.0034 145.87ZM67.0034 107.37C66.8376 101.234 67.5491 91.5442 68.1365 82.8985C68.4295 78.5843 68.6913 74.5323 68.7947 71.3316C68.8464 69.7316 68.8588 68.336 68.8148 67.2224C68.7717 66.1308 68.6732 65.2446 68.4717 64.7077L67.5355 65.0591C67.6733 65.4264 67.7721 66.161 67.8156 67.2618C67.8582 68.3406 67.8466 69.7089 67.7952 71.2993C67.6925 74.4793 67.432 78.5138 67.1388 82.8308C66.5534 91.4476 65.8363 101.2 66.0038 107.397L67.0034 107.37ZM87.9688 47.8822C96.6088 48.485 107.018 47.8569 116.612 47.2073C126.238 46.5555 135.009 45.886 140.458 46.3814L140.549 45.3855C134.998 44.8809 126.119 45.5613 116.545 46.2096C106.939 46.86 96.5984 47.4819 88.0384 46.8847L87.9688 47.8822ZM308.472 443.883H74.5036V444.883H308.472V443.883ZM292.5 259.383H91.0036V260.383H292.5V259.383ZM140.504 46.3834H228.004V45.3834H140.504V46.3834ZM68.4717 64.7077C68.4463 64.6401 68.4221 64.4549 68.4482 64.1036C68.4729 63.7731 68.5364 63.3578 68.6316 62.876C68.8219 61.9136 69.1292 60.7323 69.4656 59.5215C69.8035 58.3057 70.161 57.0934 70.4599 56.034C70.7524 54.997 70.9919 54.0962 71.0671 53.5708L70.0772 53.4292C70.0134 53.8747 69.7958 54.7049 69.4974 55.7626C69.2054 56.7978 68.8383 58.044 68.5021 59.2538C68.1646 60.4687 67.8486 61.6804 67.6506 62.6821C67.5517 63.1823 67.4799 63.6418 67.451 64.0293C67.4237 64.396 67.4277 64.7719 67.5355 65.0591L68.4717 64.7077ZM71.0671 53.5708C71.2877 52.0294 71.4606 50.8881 71.8315 50.0133C72.184 49.1823 72.7134 48.6 73.6932 48.1965C74.7098 47.7779 76.2206 47.5486 78.5365 47.504C80.843 47.4595 83.8965 47.5981 87.9688 47.8822L88.0384 46.8847C83.962 46.6003 80.871 46.4588 78.5173 46.5041C76.1729 46.5493 74.5077 46.7796 73.3124 47.2719C72.0803 47.7793 71.3621 48.5591 70.9109 49.6229C70.4783 50.6429 70.2918 51.9291 70.0772 53.4292L71.0671 53.5708ZM322.947 5.8828C326.261 6.0485 331.356 6.57089 335.861 7.59596C338.115 8.10882 340.201 8.74302 341.838 9.51105C343.496 10.2893 344.594 11.16 345.017 12.0903L345.927 11.6765C345.35 10.4068 343.969 9.40671 342.263 8.6058C340.534 7.79466 338.371 7.14136 336.083 6.62088C331.505 5.57929 326.35 5.05168 322.997 4.88405L322.947 5.8828ZM345.017 12.0903C347.007 16.4685 351.5 28.5473 353.502 34.0543L354.442 33.7126C352.445 28.2195 347.937 16.0983 345.927 11.6765L345.017 12.0903ZM353.472 33.8834V130.383H354.472V33.8834H353.472ZM353.473 130.362L347.973 260.862L348.972 260.904L354.472 130.404L353.473 130.362ZM347.974 260.841C346.141 282.254 342.991 315.198 339.501 344.437C337.755 359.057 335.925 372.745 334.132 383.6C333.235 389.028 332.349 393.743 331.488 397.509C330.625 401.287 329.795 404.071 329.022 405.665L329.922 406.102C330.749 404.396 331.599 401.512 332.463 397.731C333.33 393.938 334.22 389.201 335.119 383.763C336.915 372.886 338.747 359.181 340.494 344.555C343.986 315.302 347.137 282.346 348.97 260.926L347.974 260.841ZM328.972 405.883V417.383H329.972V405.883H328.972ZM329.888 417.661C332.059 414.405 335.34 409.27 338.13 404.446C339.525 402.035 340.801 399.694 341.754 397.701C342.697 395.732 343.36 394.032 343.47 392.933L342.475 392.834C342.384 393.735 341.802 395.285 340.852 397.269C339.914 399.229 338.653 401.545 337.264 403.946C334.488 408.746 331.219 413.862 329.056 417.106L329.888 417.661ZM343.47 392.933C343.867 388.957 348.295 362.985 350.465 350.469L349.479 350.298C347.316 362.782 342.877 388.81 342.475 392.834L343.47 392.933ZM350.467 350.452C353.132 331.303 358.57 290.837 358.972 282.407L357.973 282.36C357.574 290.73 352.146 331.131 349.477 350.315L350.467 350.452ZM358.972 282.407C359.371 274.017 362.137 237.26 363.471 219.922L362.474 219.845C361.141 237.173 358.373 273.95 357.973 282.36L358.972 282.407ZM363.472 219.898L364.972 169.898L363.972 169.868L362.472 219.868L363.472 219.898ZM364.972 169.873C364.639 154.213 363.872 121.166 363.471 114.354L362.473 114.413C362.872 121.201 363.639 154.22 363.972 169.894L364.972 169.873ZM363.471 114.354C363.071 107.554 361.305 77.5208 360.471 63.3541L359.473 63.4128C360.306 77.5794 362.073 107.613 362.473 114.413L363.471 114.354ZM360.462 63.2838L354.462 33.7838L353.482 33.9831L359.482 63.4831L360.462 63.2838ZM363.471 114.354L360.471 63.3541L359.473 63.4128L362.473 114.413L363.471 114.354ZM120.972 5.88342H322.972V4.88342H120.972V5.88342ZM61.9789 4.88405C58.6262 5.05168 53.4709 5.57929 48.8929 6.62088C46.6054 7.14136 44.4415 7.79466 42.7133 8.6058C41.0069 9.40671 39.6258 10.4068 39.0487 11.6765L39.959 12.0903C40.3819 11.16 41.48 10.2893 43.1382 9.51105C44.7745 8.74302 46.8607 8.10882 49.1148 7.59596C53.6202 6.57089 58.7148 6.0485 62.0288 5.8828L61.9789 4.88405ZM39.0487 11.6765C37.0388 16.0983 32.5314 28.2195 30.534 33.7126L31.4738 34.0543C33.4763 28.5473 37.9689 16.4685 39.959 12.0903L39.0487 11.6765ZM30.5039 33.8834V130.383H31.5039V33.8834H30.5039ZM30.5043 130.404L36.0043 260.904L37.0034 260.862L31.5034 130.362L30.5043 130.404ZM36.0057 260.926C37.8393 282.346 40.9899 315.302 44.4824 344.555C46.2286 359.181 48.0608 372.886 49.8574 383.763C50.7556 389.201 51.6458 393.938 52.5129 397.731C53.3771 401.512 54.2268 404.396 55.0539 406.102L55.9538 405.665C55.1809 404.071 54.3514 401.287 53.4878 397.509C52.627 393.743 51.7406 389.028 50.844 383.6C49.051 372.745 47.2208 359.057 45.4753 344.437C41.9845 315.198 38.8351 282.254 37.002 260.841L36.0057 260.926ZM55.0039 405.883V417.383H56.0039V405.883H55.0039ZM55.9199 417.106C53.7573 413.862 50.4883 408.746 47.7117 403.946C46.3231 401.545 45.0615 399.229 44.1236 397.269C43.1743 395.285 42.5915 393.735 42.5014 392.834L41.5063 392.933C41.6162 394.032 42.2793 395.732 43.2216 397.701C44.1754 399.694 45.4513 402.035 46.846 404.446C49.6361 409.27 52.9171 414.405 55.0878 417.661L55.9199 417.106ZM42.5014 392.834C42.099 388.81 37.6604 362.782 35.4965 350.298L34.5112 350.469C36.6806 362.985 41.1087 388.957 41.5063 392.933L42.5014 392.834ZM35.4991 350.315C32.8301 331.131 27.4019 290.73 27.0033 282.36L26.0044 282.407C26.4058 290.837 31.8443 331.303 34.5086 350.452L35.4991 350.315ZM27.0033 282.36C26.6028 273.95 23.8353 237.173 22.5024 219.845L21.5053 219.922C22.8391 237.26 25.6049 274.017 26.0044 282.407L27.0033 282.36ZM22.5036 219.868L21.0036 169.868L20.0041 169.898L21.5041 219.898L22.5036 219.868ZM21.0037 169.894C21.3372 154.22 22.1037 121.201 22.503 114.413L21.5047 114.354C21.104 121.166 20.3372 154.213 20.004 169.873L21.0037 169.894ZM22.503 114.413C22.903 107.613 24.6697 77.5795 25.503 63.4128L24.5047 63.3541C23.6714 77.5207 21.9047 107.554 21.5047 114.354L22.503 114.413ZM25.4938 63.4831L31.4938 33.9831L30.5139 33.7838L24.5139 63.2838L25.4938 63.4831ZM22.503 114.413L25.503 63.4128L24.5047 63.3541L21.5047 114.354L22.503 114.413ZM264.004 4.88342H62.0039V5.88342H264.004V4.88342ZM293.503 259.383C293.36 259.383 293.217 259.383 293.074 259.383C292.931 259.383 292.788 259.383 292.644 259.383C292.5 259.383 292.357 259.383 292.213 259.383C292.069 259.383 291.925 259.383 291.781 259.383C291.637 259.383 291.492 259.383 291.348 259.383C291.203 259.383 291.059 259.383 290.914 259.383C290.769 259.383 290.624 259.383 290.479 259.383C290.334 259.383 290.189 259.383 290.044 259.383C289.898 259.383 289.753 259.383 289.607 259.383C289.461 259.383 289.315 259.383 289.169 259.383C289.023 259.383 288.877 259.383 288.731 259.383C288.585 259.383 288.438 259.383 288.292 259.383C288.145 259.383 287.998 259.383 287.851 259.383C287.705 259.383 287.558 259.383 287.41 259.383C287.263 259.383 287.116 259.383 286.969 259.383C286.821 259.383 286.673 259.383 286.526 259.383C286.378 259.383 286.23 259.383 286.082 259.383C285.934 259.383 285.786 259.383 285.638 259.383C285.489 259.383 285.341 259.383 285.192 259.383C285.044 259.383 284.895 259.383 284.746 259.383C284.597 259.383 284.448 259.383 284.299 259.383C284.15 259.383 284.001 259.383 283.851 259.383C283.702 259.383 283.553 259.383 283.403 259.383C283.253 259.383 283.103 259.383 282.954 259.383C282.804 259.383 282.654 259.383 282.503 259.383C282.353 259.383 282.203 259.383 282.052 259.383C281.902 259.383 281.751 259.383 281.601 259.383C281.45 259.383 281.299 259.383 281.148 259.383C280.997 259.383 280.846 259.383 280.695 259.383C280.544 259.383 280.392 259.383 280.241 259.383C280.089 259.383 279.938 259.383 279.786 259.383C279.634 259.383 279.482 259.383 279.33 259.383C279.178 259.383 279.026 259.383 278.874 259.383C278.722 259.383 278.57 259.383 278.417 259.383C278.265 259.383 278.112 259.383 277.959 259.383C277.807 259.383 277.654 259.383 277.501 259.383C277.348 259.383 277.195 259.383 277.042 259.383C276.888 259.383 276.735 259.383 276.582 259.383C276.428 259.383 276.275 259.383 276.121 259.383C275.968 259.383 275.814 259.383 275.66 259.383C275.506 259.383 275.352 259.383 275.198 259.383C275.044 259.383 274.89 259.383 274.735 259.383C274.581 259.383 274.426 259.383 274.272 259.383C274.117 259.383 273.963 259.383 273.808 259.383C273.653 259.383 273.498 259.383 273.343 259.383C273.188 259.383 273.033 259.383 272.878 259.383C272.723 259.383 272.567 259.383 272.412 259.383C272.257 259.383 272.101 259.383 271.945 259.383C271.79 259.383 271.634 259.383 271.478 259.383C271.322 259.383 271.167 259.383 271.01 259.383C270.854 259.383 270.698 259.383 270.542 259.383C270.386 259.383 270.229 259.383 270.073 259.383C269.917 259.383 269.76 259.383 269.603 259.383C269.447 259.383 269.29 259.383 269.133 259.383C268.976 259.383 268.819 259.383 268.662 259.383C268.505 259.383 268.348 259.383 268.191 259.383C268.034 259.383 267.876 259.383 267.719 259.383C267.561 259.383 267.404 259.383 267.246 259.383C267.089 259.383 266.931 259.383 266.773 259.383C266.615 259.383 266.457 259.383 266.299 259.383C266.141 259.383 265.983 259.383 265.825 259.383C265.667 259.383 265.509 259.383 265.35 259.383C265.192 259.383 265.034 259.383 264.875 259.383C264.717 259.383 264.558 259.383 264.399 259.383C264.241 259.383 264.082 259.383 263.923 259.383C263.764 259.383 263.605 259.383 263.446 259.383C263.287 259.383 263.128 259.383 262.969 259.383C262.809 259.383 262.65 259.383 262.491 259.383C262.331 259.383 262.172 259.383 262.012 259.383C261.853 259.383 261.693 259.383 261.534 259.383C261.374 259.383 261.214 259.383 261.054 259.383C260.894 259.383 260.734 259.383 260.574 259.383C260.414 259.383 260.254 259.383 260.094 259.383C259.934 259.383 259.774 259.383 259.613 259.383C259.453 259.383 259.293 259.383 259.132 259.383C258.972 259.383 258.811 259.383 258.651 259.383C258.49 259.383 258.329 259.383 258.169 259.383C258.008 259.383 257.847 259.383 257.686 259.383C257.525 259.383 257.364 259.383 257.203 259.383C257.042 259.383 256.881 259.383 256.72 259.383C256.559 259.383 256.397 259.383 256.236 259.383C256.075 259.383 255.913 259.383 255.752 259.383C255.59 259.383 255.429 259.383 255.267 259.383C255.106 259.383 254.944 259.383 254.782 259.383C254.621 259.383 254.459 259.383 254.297 259.383C254.135 259.383 253.973 259.383 253.811 259.383C253.65 259.383 253.487 259.383 253.325 259.383C253.163 259.383 253.001 259.383 252.839 259.383C252.677 259.383 252.515 259.383 252.352 259.383C252.19 259.383 252.028 259.383 251.865 259.383C251.703 259.383 251.54 259.383 251.378 259.383C251.215 259.383 251.052 259.383 250.89 259.383C250.727 259.383 250.564 259.383 250.402 259.383C250.239 259.383 250.076 259.383 249.913 259.383C249.75 259.383 249.587 259.383 249.424 259.383C249.262 259.383 249.098 259.383 248.935 259.383C248.772 259.383 248.609 259.383 248.446 259.383C248.283 259.383 248.12 259.383 247.956 259.383C247.793 259.383 247.63 259.383 247.466 259.383C247.303 259.383 247.14 259.383 246.976 259.383C246.813 259.383 246.649 259.383 246.486 259.383C246.322 259.383 246.159 259.383 245.995 259.383C245.831 259.383 245.668 259.383 245.504 259.383C245.34 259.383 245.176 259.383 245.013 259.383C244.849 259.383 244.685 259.383 244.521 259.383C244.357 259.383 244.193 259.383 244.029 259.383C243.865 259.383 243.701 259.383 243.537 259.383C243.373 259.383 243.209 259.383 243.045 259.383C242.881 259.383 242.717 259.383 242.553 259.383C242.389 259.383 242.224 259.383 242.06 259.383C241.896 259.383 241.732 259.383 241.567 259.383C241.403 259.383 241.239 259.383 241.074 259.383C240.91 259.383 240.745 259.383 240.581 259.383C240.416 259.383 240.252 259.383 240.088 259.383C239.923 259.383 239.758 259.383 239.594 259.383C239.429 259.383 239.265 259.383 239.1 259.383C238.936 259.383 238.771 259.383 238.606 259.383C238.442 259.383 238.277 259.383 238.112 259.383C237.947 259.383 237.783 259.383 237.618 259.383C237.453 259.383 237.288 259.383 237.124 259.383C236.959 259.383 236.794 259.383 236.629 259.383C236.464 259.383 236.299 259.383 236.134 259.383C235.97 259.383 235.805 259.383 235.64 259.383C235.475 259.383 235.31 259.383 235.145 259.383C234.98 259.383 234.815 259.383 234.65 259.383C234.485 259.383 234.32 259.383 234.155 259.383C233.99 259.383 233.825 259.383 233.66 259.383C233.494 259.383 233.329 259.383 233.164 259.383C232.999 259.383 232.834 259.383 232.669 259.383C232.504 259.383 232.339 259.383 232.174 259.383C232.008 259.383 231.843 259.383 231.678 259.383C231.513 259.383 231.348 259.383 231.183 259.383C231.017 259.383 230.852 259.383 230.687 259.383C230.522 259.383 230.357 259.383 230.191 259.383C230.026 259.383 229.861 259.383 229.696 259.383C229.53 259.383 229.365 259.383 229.2 259.383C229.035 259.383 228.869 259.383 228.704 259.383C228.539 259.383 228.374 259.383 228.208 259.383C228.043 259.383 227.878 259.383 227.713 259.383C227.547 259.383 227.382 259.383 227.217 259.383C227.052 259.383 226.886 259.383 226.721 259.383C226.556 259.383 226.391 259.383 226.225 259.383C226.06 259.383 225.895 259.383 225.73 259.383C225.564 259.383 225.399 259.383 225.234 259.383C225.069 259.383 224.903 259.383 224.738 259.383C224.573 259.383 224.408 259.383 224.243 259.383C224.077 259.383 223.912 259.383 223.747 259.383C223.582 259.383 223.417 259.383 223.251 259.383C223.086 259.383 222.921 259.383 222.756 259.383C222.591 259.383 222.426 259.383 222.261 259.383C222.095 259.383 221.93 259.383 221.765 259.383C221.6 259.383 221.435 259.383 221.27 259.383C221.105 259.383 220.94 259.383 220.775 259.383C220.61 259.383 220.445 259.383 220.28 259.383C220.115 259.383 219.95 259.383 219.785 259.383C219.62 259.383 219.455 259.383 219.29 259.383C219.125 259.383 218.96 259.383 218.795 259.383C218.63 259.383 218.465 259.383 218.3 259.383C218.135 259.383 217.971 259.383 217.806 259.383C217.641 259.383 217.476 259.383 217.311 259.383C217.147 259.383 216.982 259.383 216.817 259.383C216.652 259.383 216.488 259.383 216.323 259.383C216.158 259.383 215.994 259.383 215.829 259.383C215.664 259.383 215.5 259.383 215.335 259.383C215.171 259.383 215.006 259.383 214.842 259.383C214.677 259.383 214.513 259.383 214.348 259.383C214.184 259.383 214.019 259.383 213.855 259.383C213.69 259.383 213.526 259.383 213.362 259.383C213.197 259.383 213.033 259.383 212.869 259.383C212.705 259.383 212.54 259.383 212.376 259.383C212.212 259.383 212.048 259.383 211.884 259.383C211.72 259.383 211.555 259.383 211.391 259.383C211.227 259.383 211.063 259.383 210.899 259.383C210.735 259.383 210.571 259.383 210.408 259.383C210.244 259.383 210.08 259.383 209.916 259.383C209.752 259.383 209.588 259.383 209.425 259.383C209.261 259.383 209.097 259.383 208.934 259.383C208.77 259.383 208.606 259.383 208.443 259.383C208.279 259.383 208.116 259.383 207.952 259.383C207.789 259.383 207.625 259.383 207.462 259.383C207.298 259.383 207.135 259.383 206.972 259.383C206.809 259.383 206.645 259.383 206.482 259.383C206.319 259.383 206.156 259.383 205.993 259.383C205.83 259.383 205.667 259.383 205.504 259.383C205.341 259.383 205.178 259.383 205.015 259.383C204.852 259.383 204.689 259.383 204.526 259.383C204.363 259.383 204.201 259.383 204.038 259.383C203.875 259.383 203.713 259.383 203.55 259.383C203.388 259.383 203.225 259.383 203.063 259.383C202.9 259.383 202.738 259.383 202.575 259.383C202.413 259.383 202.251 259.383 202.088 259.383C201.926 259.383 201.764 259.383 201.602 259.383C201.44 259.383 201.278 259.383 201.116 259.383C200.954 259.383 200.792 259.383 200.63 259.383C200.468 259.383 200.306 259.383 200.145 259.383C199.983 259.383 199.821 259.383 199.66 259.383C199.498 259.383 199.336 259.383 199.175 259.383C199.014 259.383 198.852 259.383 198.691 259.383C198.529 259.383 198.368 259.383 198.207 259.383C198.046 259.383 197.885 259.383 197.723 259.383C197.562 259.383 197.401 259.383 197.24 259.383C197.08 259.383 196.919 259.383 196.758 259.383C196.597 259.383 196.436 259.383 196.276 259.383C196.115 259.383 195.955 259.383 195.794 259.383C195.634 259.383 195.473 259.383 195.313 259.383C195.152 259.383 194.992 259.383 194.832 259.383C194.672 259.383 194.512 259.383 194.352 259.383C194.191 259.383 194.031 259.383 193.872 259.383C193.712 259.383 193.552 259.383 193.392 259.383C193.232 259.383 193.073 259.383 192.913 259.383C192.754 259.383 192.594 259.383 192.435 259.383C192.275 259.383 192.116 259.383 191.957 259.383C191.797 259.383 191.638 259.383 191.479 259.383C191.32 259.383 191.161 259.383 191.002 259.383C190.843 259.383 190.685 259.383 190.526 259.383C190.367 259.383 190.208 259.383 190.05 259.383C189.891 259.383 189.733 259.383 189.574 259.383C189.416 259.383 189.258 259.383 189.099 259.383C188.941 259.383 188.783 259.383 188.625 259.383C188.467 259.383 188.309 259.383 188.151 259.383C187.993 259.383 187.836 259.383 187.678 259.383C187.52 259.383 187.363 259.383 187.205 259.383C187.048 259.383 186.891 259.383 186.733 259.383C186.576 259.383 186.419 259.383 186.262 259.383C186.105 259.383 185.948 259.383 185.791 259.383C185.634 259.383 185.477 259.383 185.32 259.383C185.164 259.383 185.007 259.383 184.851 259.383C184.694 259.383 184.538 259.383 184.381 259.383C184.225 259.383 184.069 259.383 183.913 259.383C183.757 259.383 183.601 259.383 183.445 259.383C183.289 259.383 183.133 259.383 182.977 259.383C182.822 259.383 182.666 259.383 182.511 259.383C182.355 259.383 182.2 259.383 182.045 259.383C181.889 259.383 181.734 259.383 181.579 259.383C181.424 259.383 181.269 259.383 181.114 259.383C180.96 259.383 180.805 259.383 180.65 259.383C180.496 259.383 180.341 259.383 180.187 259.383C180.032 259.383 179.878 259.383 179.724 259.383C179.57 259.383 179.416 259.383 179.262 259.383C179.108 259.383 178.954 259.383 178.8 259.383C178.647 259.383 178.493 259.383 178.34 259.383C178.186 259.383 178.033 259.383 177.88 259.383C177.726 259.383 177.573 259.383 177.42 259.383C177.267 259.383 177.114 259.383 176.962 259.383C176.809 259.383 176.656 259.383 176.504 259.383C176.351 259.383 176.199 259.383 176.046 259.383C175.894 259.383 175.742 259.383 175.59 259.383C175.438 259.383 175.286 259.383 175.134 259.383C174.982 259.383 174.831 259.383 174.679 259.383C174.528 259.383 174.376 259.383 174.225 259.383C174.074 259.383 173.923 259.383 173.772 259.383C173.621 259.383 173.47 259.383 173.319 259.383C173.168 259.383 173.017 259.383 172.867 259.383C172.716 259.383 172.566 259.383 172.416 259.383C172.266 259.383 172.115 259.383 171.965 259.383C171.815 259.383 171.666 259.383 171.516 259.383C171.366 259.383 171.217 259.383 171.067 259.383C170.918 259.383 170.768 259.383 170.619 259.383C170.47 259.383 170.321 259.383 170.172 259.383C170.023 259.383 169.874 259.383 169.726 259.383C169.577 259.383 169.429 259.383 169.28 259.383C169.132 259.383 168.984 259.383 168.835 259.383C168.687 259.383 168.539 259.383 168.392 259.383C168.244 259.383 168.096 259.383 167.949 259.383C167.801 259.383 167.654 259.383 167.507 259.383C167.359 259.383 167.212 259.383 167.065 259.383C166.918 259.383 166.772 259.383 166.625 259.383C166.478 259.383 166.332 259.383 166.185 259.383C166.039 259.383 165.893 259.383 165.747 259.383C165.601 259.383 165.455 259.383 165.309 259.383C165.163 259.383 165.018 259.383 164.872 259.383C164.727 259.383 164.581 259.383 164.436 259.383C164.291 259.383 164.146 259.383 164.001 259.383C163.856 259.383 163.712 259.383 163.567 259.383C163.423 259.383 163.278 259.383 163.134 259.383C162.99 259.383 162.846 259.383 162.702 259.383C162.558 259.383 162.414 259.383 162.27 259.383C162.127 259.383 161.983 259.383 161.84 259.383C161.697 259.383 161.554 259.383 161.411 259.383C161.268 259.383 161.125 259.383 160.982 259.383C160.84 259.383 160.697 259.383 160.555 259.383C160.412 259.383 160.27 259.383 160.128 259.383C159.986 259.383 159.844 259.383 159.703 259.383C159.561 259.383 159.419 259.383 159.278 259.383C159.137 259.383 158.996 259.383 158.855 259.383C158.714 259.383 158.573 259.383 158.432 259.383C158.291 259.383 158.151 259.383 158.01 259.383C157.87 259.383 157.73 259.383 157.59 259.383C157.45 259.383 157.31 259.383 157.17 259.383C157.031 259.383 156.891 259.383 156.752 259.383C156.613 259.383 156.473 259.383 156.334 259.383C156.196 259.383 156.057 259.383 155.918 259.383C155.779 259.383 155.641 259.383 155.503 259.383C155.364 259.383 155.226 259.383 155.088 259.383C154.95 259.383 154.813 259.383 154.675 259.383C154.538 259.383 154.4 259.383 154.263 259.383C154.126 259.383 153.989 259.383 153.852 259.383C153.715 259.383 153.578 259.383 153.442 259.383C153.305 259.383 153.169 259.383 153.033 259.383C152.897 259.383 152.761 259.383 152.625 259.383C152.489 259.383 152.354 259.383 152.218 259.383C152.083 259.383 151.948 259.383 151.813 259.383C151.678 259.383 151.543 259.383 151.408 259.383C151.274 259.383 151.139 259.383 151.005 259.383C150.871 259.383 150.737 259.383 150.603 259.383C150.469 259.383 150.335 259.383 150.202 259.383C150.068 259.383 149.935 259.383 149.802 259.383C149.668 259.383 149.536 259.383 149.403 259.383C149.27 259.383 149.137 259.383 149.005 259.383C148.873 259.383 148.741 259.383 148.609 259.383C148.477 259.383 148.345 259.383 148.213 259.383C148.082 259.383 147.95 259.383 147.819 259.383C147.688 259.383 147.557 259.383 147.426 259.383C147.295 259.383 147.165 259.383 147.034 259.383C146.904 259.383 146.774 259.383 146.644 259.383C146.514 259.383 146.384 259.383 146.255 259.383C146.125 259.383 145.996 259.383 145.866 259.383C145.737 259.383 145.608 259.383 145.48 259.383C145.351 259.383 145.222 259.383 145.094 259.383C144.965 259.383 144.837 259.383 144.709 259.383C144.581 259.383 144.454 259.383 144.326 259.383C144.199 259.383 144.071 259.383 143.944 259.383C143.817 259.383 143.69 259.383 143.564 259.383C143.437 259.383 143.31 259.383 143.184 259.383C143.058 259.383 142.932 259.383 142.806 259.383C142.68 259.383 142.554 259.383 142.429 259.383C142.304 259.383 142.178 259.383 142.053 259.383C141.928 259.383 141.804 259.383 141.679 259.383C141.554 259.383 141.43 259.383 141.306 259.383C141.182 259.383 141.058 259.383 140.934 259.383C140.811 259.383 140.687 259.383 140.564 259.383C140.441 259.383 140.318 259.383 140.195 259.383C140.072 259.383 139.949 259.383 139.827 259.383C139.705 259.383 139.582 259.383 139.46 259.383C139.339 259.383 139.217 259.383 139.095 259.383C138.974 259.383 138.853 259.383 138.732 259.383C138.611 259.383 138.49 259.383 138.369 259.383C138.249 259.383 138.128 259.383 138.008 259.383C137.888 259.383 137.768 259.383 137.648 259.383C137.529 259.383 137.409 259.383 137.29 259.383C137.171 259.383 137.052 259.383 136.933 259.383C136.814 259.383 136.696 259.383 136.578 259.383C136.459 259.383 136.341 259.383 136.223 259.383C136.106 259.383 135.988 259.383 135.871 259.383C135.753 259.383 135.636 259.383 135.519 259.383C135.402 259.383 135.286 259.383 135.169 259.383C135.053 259.383 134.937 259.383 134.821 259.383C134.705 259.383 134.589 259.383 134.474 259.383C134.358 259.383 134.243 259.383 134.128 259.383C134.013 259.383 133.898 259.383 133.784 259.383C133.669 259.383 133.555 259.383 133.441 259.383C133.327 259.383 133.213 259.383 133.1 259.383C132.986 259.383 132.873 259.383 132.76 259.383C132.647 259.383 132.534 259.383 132.421 259.383C132.309 259.383 132.197 259.383 132.084 259.383C131.972 259.383 131.861 259.383 131.749 259.383C131.637 259.383 131.526 259.383 131.415 259.383C131.304 259.383 131.193 259.383 131.083 259.383C130.972 259.383 130.862 259.383 130.752 259.383C130.642 259.383 130.532 259.383 130.422 259.383C130.313 259.383 130.203 259.383 130.094 259.383C129.985 259.383 129.876 259.383 129.768 259.383C129.659 259.383 129.551 259.383 129.443 259.383C129.335 259.383 129.227 259.383 129.12 259.383C129.012 259.383 128.905 259.383 128.798 259.383C128.691 259.383 128.584 259.383 128.478 259.383C128.371 259.383 128.265 259.383 128.159 259.383C128.053 259.383 127.947 259.383 127.842 259.383C127.736 259.383 127.631 259.383 127.526 259.383C127.421 259.383 127.317 259.383 127.212 259.383C127.108 259.383 127.004 259.383 126.9 259.383C126.796 259.383 126.692 259.383 126.589 259.383C126.486 259.383 126.383 259.383 126.28 259.383C126.177 259.383 126.075 259.383 125.972 259.383C125.87 259.383 125.768 259.383 125.666 259.383C125.565 259.383 125.463 259.383 125.362 259.383C125.261 259.383 125.16 259.383 125.059 259.383C124.959 259.383 124.858 259.383 124.758 259.383C124.658 259.383 124.558 259.383 124.459 259.383C124.359 259.383 124.26 259.383 124.161 259.383C124.062 259.383 123.963 259.383 123.865 259.383C123.766 259.383 123.668 259.383 123.57 259.383C123.472 259.383 123.375 259.383 123.277 259.383C123.18 259.383 123.083 259.383 122.986 259.383C122.889 259.383 122.793 259.383 122.697 259.383C122.6 259.383 122.505 259.383 122.409 259.383C122.313 259.383 122.218 259.383 122.123 259.383C122.028 259.383 121.933 259.383 121.838 259.383C121.744 259.383 121.65 259.383 121.556 259.383C121.462 259.383 121.368 259.383 121.275 259.383C121.181 259.383 121.088 259.383 120.995 259.383C120.903 259.383 120.81 259.383 120.718 259.383C120.626 259.383 120.534 259.383 120.442 259.383C120.351 259.383 120.259 259.383 120.168 259.383C120.077 259.383 119.986 259.383 119.896 259.383C119.805 259.383 119.715 259.383 119.625 259.383C119.535 259.383 119.446 259.383 119.357 259.383C119.267 259.383 119.178 259.383 119.09 259.383C119.001 259.383 118.912 259.383 118.824 259.383C118.736 259.383 118.648 259.383 118.561 259.383C118.473 259.383 118.386 259.383 118.299 259.383C118.212 259.383 118.126 259.383 118.039 259.383C117.953 259.383 117.867 259.383 117.781 259.383C117.696 259.383 117.61 259.383 117.525 259.383C117.44 259.383 117.355 259.383 117.271 259.383C117.186 259.383 117.102 259.383 117.018 259.383C116.934 259.383 116.851 259.383 116.767 259.383C116.684 259.383 116.601 259.383 116.519 259.383C116.436 259.383 116.354 259.383 116.271 259.383C116.189 259.383 116.108 259.383 116.026 259.383C115.945 259.383 115.864 259.383 115.783 259.383C115.702 259.383 115.622 259.383 115.541 259.383C115.461 259.383 115.381 259.383 115.302 259.383C115.222 259.383 115.143 259.383 115.064 259.383C114.985 259.383 114.907 259.383 114.828 259.383C114.75 259.383 114.672 259.383 114.594 259.383C114.517 259.383 114.439 259.383 114.362 259.383C114.285 259.383 114.209 259.383 114.132 259.383C114.056 259.383 113.98 259.383 113.904 259.383C113.828 259.383 113.753 259.383 113.678 259.383C113.603 259.383 113.528 259.383 113.453 259.383C113.379 259.383 113.305 259.383 113.231 259.383C113.157 259.383 113.084 259.383 113.01 259.383C112.937 259.383 112.864 259.383 112.792 259.383C112.719 259.383 112.647 259.383 112.575 259.383C112.503 259.383 112.432 259.383 112.361 259.383C112.289 259.383 112.218 259.383 112.148 259.383C112.077 259.383 112.007 259.383 111.937 259.383C111.867 259.383 111.798 259.383 111.729 259.383C111.659 259.383 111.59 259.383 111.522 259.383C111.453 259.383 111.385 259.383 111.317 259.383C111.249 259.383 111.182 259.383 111.114 259.383C111.047 259.383 110.98 259.383 110.914 259.383C110.847 259.383 110.781 259.383 110.715 259.383C110.649 259.383 110.584 259.383 110.519 259.383C110.453 259.383 110.388 259.383 110.324 259.383C110.259 259.383 110.195 259.383 110.131 259.383C110.067 259.383 110.004 259.383 109.941 259.383C109.878 259.383 109.815 259.383 109.752 259.383C109.69 259.383 109.628 259.383 109.566 259.383C109.504 259.383 109.443 259.383 109.382 259.383C109.32 259.383 109.26 259.383 109.199 259.383C109.139 259.383 109.079 259.383 109.019 259.383C108.959 259.383 108.9 259.383 108.841 259.383C108.782 259.383 108.723 259.383 108.665 259.383C108.607 259.383 108.549 259.383 108.491 259.383C108.433 259.383 108.376 259.383 108.319 259.383C108.262 259.383 108.206 259.383 108.15 259.383C108.093 259.383 108.038 259.383 107.982 259.383C107.927 259.383 107.871 259.383 107.817 259.383C107.762 259.383 107.707 259.383 107.653 259.383C107.599 259.383 107.546 259.383 107.492 259.383C107.439 259.383 107.386 259.383 107.333 259.383C107.281 259.383 107.228 259.383 107.176 259.383C107.124 259.383 107.073 259.383 107.022 259.383C106.97 259.383 106.92 259.383 106.869 259.383C106.819 259.383 106.769 259.383 106.719 259.383C106.669 259.383 106.62 259.383 106.571 259.383C106.522 259.383 106.473 259.383 106.425 259.383C106.376 259.383 106.328 259.383 106.281 259.383C106.233 259.383 106.186 259.383 106.139 259.383C106.092 259.383 106.046 259.383 106 259.383C105.954 259.383 105.908 259.383 105.863 259.383C105.817 259.383 105.772 259.383 105.728 259.383C105.683 259.383 105.639 259.383 105.595 259.383C105.551 259.383 105.508 259.383 105.465 259.383C105.422 259.383 105.379 259.383 105.337 259.383C105.294 259.383 105.252 259.383 105.211 259.383C105.169 259.383 105.128 259.383 105.087 259.383C105.046 259.383 105.006 259.383 104.966 259.383C104.925 259.383 104.886 259.383 104.846 259.383C104.807 259.383 104.768 259.383 104.73 259.383C104.691 259.383 104.653 259.383 104.615 259.383C104.577 259.383 104.54 259.383 104.503 259.383C104.466 259.383 104.429 259.383 104.393 259.383C104.356 259.383 104.32 259.383 104.285 259.383C104.249 259.383 104.214 259.383 104.18 259.383C104.145 259.383 104.111 259.383 104.077 259.383C104.043 259.383 104.009 259.383 103.976 259.383C103.943 259.383 103.91 259.383 103.877 259.383C103.845 259.383 103.813 259.383 103.781 259.383C103.75 259.383 103.719 259.383 103.688 259.383C103.657 259.383 103.626 259.383 103.596 259.383C103.566 259.383 103.537 259.383 103.507 259.383C103.478 259.383 103.449 259.383 103.421 259.383C103.392 259.383 103.364 259.383 103.337 259.383C103.309 259.383 103.282 259.383 103.255 259.383C103.228 259.383 103.201 259.383 103.175 259.383C103.149 259.383 103.124 259.383 103.098 259.383C103.073 259.383 103.048 259.383 103.024 259.383C102.999 259.383 102.975 259.383 102.951 259.383C102.928 259.383 102.904 259.383 102.882 259.383C102.859 259.383 102.836 259.383 102.814 259.383C102.792 259.383 102.77 259.383 102.749 259.383C102.728 259.383 102.707 259.383 102.687 259.383C102.666 259.383 102.646 259.383 102.627 259.383C102.607 259.383 102.588 259.383 102.569 259.383C102.55 259.383 102.532 259.383 102.514 259.383C102.496 259.383 102.478 259.383 102.461 259.383C102.444 259.383 102.427 259.383 102.411 259.383C102.394 259.383 102.379 259.383 102.363 259.383C102.348 259.383 102.332 259.383 102.318 259.383C102.303 259.383 102.289 259.383 102.275 259.383C102.261 259.383 102.248 259.383 102.235 259.383C102.222 259.383 102.209 259.383 102.197 259.383C102.185 259.383 102.173 259.383 102.162 259.383C102.15 259.383 102.139 259.383 102.129 259.383C102.118 259.383 102.108 259.383 102.099 259.383C102.089 259.383 102.08 259.383 102.071 259.383C102.062 259.383 102.054 259.383 102.046 259.383C102.038 259.383 102.03 259.383 102.023 259.383C102.016 259.383 102.01 259.383 102.003 259.383V260.383C102.01 260.383 102.016 260.383 102.023 260.383C102.03 260.383 102.038 260.383 102.046 260.383C102.054 260.383 102.062 260.383 102.071 260.383C102.08 260.383 102.089 260.383 102.099 260.383C102.108 260.383 102.118 260.383 102.129 260.383C102.139 260.383 102.15 260.383 102.162 260.383C102.173 260.383 102.185 260.383 102.197 260.383C102.209 260.383 102.222 260.383 102.235 260.383C102.248 260.383 102.261 260.383 102.275 260.383C102.289 260.383 102.303 260.383 102.318 260.383C102.332 260.383 102.348 260.383 102.363 260.383C102.379 260.383 102.394 260.383 102.411 260.383C102.427 260.383 102.444 260.383 102.461 260.383C102.478 260.383 102.496 260.383 102.514 260.383C102.532 260.383 102.55 260.383 102.569 260.383C102.588 260.383 102.607 260.383 102.627 260.383C102.646 260.383 102.666 260.383 102.687 260.383C102.707 260.383 102.728 260.383 102.749 260.383C102.77 260.383 102.792 260.383 102.814 260.383C102.836 260.383 102.859 260.383 102.882 260.383C102.904 260.383 102.928 260.383 102.951 260.383C102.975 260.383 102.999 260.383 103.024 260.383C103.048 260.383 103.073 260.383 103.098 260.383C103.124 260.383 103.149 260.383 103.175 260.383C103.201 260.383 103.228 260.383 103.255 260.383C103.282 260.383 103.309 260.383 103.337 260.383C103.364 260.383 103.392 260.383 103.421 260.383C103.449 260.383 103.478 260.383 103.507 260.383C103.537 260.383 103.566 260.383 103.596 260.383C103.626 260.383 103.657 260.383 103.688 260.383C103.719 260.383 103.75 260.383 103.781 260.383C103.813 260.383 103.845 260.383 103.877 260.383C103.91 260.383 103.943 260.383 103.976 260.383C104.009 260.383 104.043 260.383 104.077 260.383C104.111 260.383 104.145 260.383 104.18 260.383C104.214 260.383 104.249 260.383 104.285 260.383C104.32 260.383 104.356 260.383 104.393 260.383C104.429 260.383 104.466 260.383 104.503 260.383C104.54 260.383 104.577 260.383 104.615 260.383C104.653 260.383 104.691 260.383 104.73 260.383C104.768 260.383 104.807 260.383 104.846 260.383C104.886 260.383 104.925 260.383 104.966 260.383C105.006 260.383 105.046 260.383 105.087 260.383C105.128 260.383 105.169 260.383 105.211 260.383C105.252 260.383 105.294 260.383 105.337 260.383C105.379 260.383 105.422 260.383 105.465 260.383C105.508 260.383 105.551 260.383 105.595 260.383C105.639 260.383 105.683 260.383 105.728 260.383C105.772 260.383 105.817 260.383 105.863 260.383C105.908 260.383 105.954 260.383 106 260.383C106.046 260.383 106.092 260.383 106.139 260.383C106.186 260.383 106.233 260.383 106.281 260.383C106.328 260.383 106.376 260.383 106.425 260.383C106.473 260.383 106.522 260.383 106.571 260.383C106.62 260.383 106.669 260.383 106.719 260.383C106.769 260.383 106.819 260.383 106.869 260.383C106.92 260.383 106.97 260.383 107.022 260.383C107.073 260.383 107.124 260.383 107.176 260.383C107.228 260.383 107.281 260.383 107.333 260.383C107.386 260.383 107.439 260.383 107.492 260.383C107.546 260.383 107.599 260.383 107.653 260.383C107.707 260.383 107.762 260.383 107.817 260.383C107.871 260.383 107.927 260.383 107.982 260.383C108.038 260.383 108.093 260.383 108.15 260.383C108.206 260.383 108.262 260.383 108.319 260.383C108.376 260.383 108.433 260.383 108.491 260.383C108.549 260.383 108.607 260.383 108.665 260.383C108.723 260.383 108.782 260.383 108.841 260.383C108.9 260.383 108.959 260.383 109.019 260.383C109.079 260.383 109.139 260.383 109.199 260.383C109.26 260.383 109.32 260.383 109.382 260.383C109.443 260.383 109.504 260.383 109.566 260.383C109.628 260.383 109.69 260.383 109.752 260.383C109.815 260.383 109.878 260.383 109.941 260.383C110.004 260.383 110.067 260.383 110.131 260.383C110.195 260.383 110.259 260.383 110.324 260.383C110.388 260.383 110.453 260.383 110.519 260.383C110.584 260.383 110.649 260.383 110.715 260.383C110.781 260.383 110.847 260.383 110.914 260.383C110.98 260.383 111.047 260.383 111.114 260.383C111.182 260.383 111.249 260.383 111.317 260.383C111.385 260.383 111.453 260.383 111.522 260.383C111.59 260.383 111.659 260.383 111.729 260.383C111.798 260.383 111.867 260.383 111.937 260.383C112.007 260.383 112.077 260.383 112.148 260.383C112.218 260.383 112.289 260.383 112.361 260.383C112.432 260.383 112.503 260.383 112.575 260.383C112.647 260.383 112.719 260.383 112.792 260.383C112.864 260.383 112.937 260.383 113.01 260.383C113.084 260.383 113.157 260.383 113.231 260.383C113.305 260.383 113.379 260.383 113.453 260.383C113.528 260.383 113.603 260.383 113.678 260.383C113.753 260.383 113.828 260.383 113.904 260.383C113.98 260.383 114.056 260.383 114.132 260.383C114.209 260.383 114.285 260.383 114.362 260.383C114.439 260.383 114.517 260.383 114.594 260.383C114.672 260.383 114.75 260.383 114.828 260.383C114.907 260.383 114.985 260.383 115.064 260.383C115.143 260.383 115.222 260.383 115.302 260.383C115.381 260.383 115.461 260.383 115.541 260.383C115.622 260.383 115.702 260.383 115.783 260.383C115.864 260.383 115.945 260.383 116.026 260.383C116.108 260.383 116.189 260.383 116.271 260.383C116.354 260.383 116.436 260.383 116.519 260.383C116.601 260.383 116.684 260.383 116.767 260.383C116.851 260.383 116.934 260.383 117.018 260.383C117.102 260.383 117.186 260.383 117.271 260.383C117.355 260.383 117.44 260.383 117.525 260.383C117.61 260.383 117.696 260.383 117.781 260.383C117.867 260.383 117.953 260.383 118.039 260.383C118.126 260.383 118.212 260.383 118.299 260.383C118.386 260.383 118.473 260.383 118.561 260.383C118.648 260.383 118.736 260.383 118.824 260.383C118.912 260.383 119.001 260.383 119.09 260.383C119.178 260.383 119.267 260.383 119.357 260.383C119.446 260.383 119.535 260.383 119.625 260.383C119.715 260.383 119.805 260.383 119.896 260.383C119.986 260.383 120.077 260.383 120.168 260.383C120.259 260.383 120.351 260.383 120.442 260.383C120.534 260.383 120.626 260.383 120.718 260.383C120.81 260.383 120.903 260.383 120.995 260.383C121.088 260.383 121.181 260.383 121.275 260.383C121.368 260.383 121.462 260.383 121.556 260.383C121.65 260.383 121.744 260.383 121.838 260.383C121.933 260.383 122.028 260.383 122.123 260.383C122.218 260.383 122.313 260.383 122.409 260.383C122.505 260.383 122.6 260.383 122.697 260.383C122.793 260.383 122.889 260.383 122.986 260.383C123.083 260.383 123.18 260.383 123.277 260.383C123.375 260.383 123.472 260.383 123.57 260.383C123.668 260.383 123.766 260.383 123.865 260.383C123.963 260.383 124.062 260.383 124.161 260.383C124.26 260.383 124.359 260.383 124.459 260.383C124.558 260.383 124.658 260.383 124.758 260.383C124.858 260.383 124.959 260.383 125.059 260.383C125.16 260.383 125.261 260.383 125.362 260.383C125.463 260.383 125.565 260.383 125.666 260.383C125.768 260.383 125.87 260.383 125.972 260.383C126.075 260.383 126.177 260.383 126.28 260.383C126.383 260.383 126.486 260.383 126.589 260.383C126.692 260.383 126.796 260.383 126.9 260.383C127.004 260.383 127.108 260.383 127.212 260.383C127.317 260.383 127.421 260.383 127.526 260.383C127.631 260.383 127.736 260.383 127.842 260.383C127.947 260.383 128.053 260.383 128.159 260.383C128.265 260.383 128.371 260.383 128.478 260.383C128.584 260.383 128.691 260.383 128.798 260.383C128.905 260.383 129.012 260.383 129.12 260.383C129.227 260.383 129.335 260.383 129.443 260.383C129.551 260.383 129.659 260.383 129.768 260.383C129.876 260.383 129.985 260.383 130.094 260.383C130.203 260.383 130.313 260.383 130.422 260.383C130.532 260.383 130.642 260.383 130.752 260.383C130.862 260.383 130.972 260.383 131.083 260.383C131.193 260.383 131.304 260.383 131.415 260.383C131.526 260.383 131.637 260.383 131.749 260.383C131.861 260.383 131.972 260.383 132.084 260.383C132.197 260.383 132.309 260.383 132.421 260.383C132.534 260.383 132.647 260.383 132.76 260.383C132.873 260.383 132.986 260.383 133.1 260.383C133.213 260.383 133.327 260.383 133.441 260.383C133.555 260.383 133.669 260.383 133.784 260.383C133.898 260.383 134.013 260.383 134.128 260.383C134.243 260.383 134.358 260.383 134.474 260.383C134.589 260.383 134.705 260.383 134.821 260.383C134.937 260.383 135.053 260.383 135.169 260.383C135.286 260.383 135.402 260.383 135.519 260.383C135.636 260.383 135.753 260.383 135.871 260.383C135.988 260.383 136.106 260.383 136.223 260.383C136.341 260.383 136.459 260.383 136.578 260.383C136.696 260.383 136.814 260.383 136.933 260.383C137.052 260.383 137.171 260.383 137.29 260.383C137.409 260.383 137.529 260.383 137.648 260.383C137.768 260.383 137.888 260.383 138.008 260.383C138.128 260.383 138.249 260.383 138.369 260.383C138.49 260.383 138.611 260.383 138.732 260.383C138.853 260.383 138.974 260.383 139.095 260.383C139.217 260.383 139.339 260.383 139.46 260.383C139.582 260.383 139.705 260.383 139.827 260.383C139.949 260.383 140.072 260.383 140.195 260.383C140.318 260.383 140.441 260.383 140.564 260.383C140.687 260.383 140.811 260.383 140.934 260.383C141.058 260.383 141.182 260.383 141.306 260.383C141.43 260.383 141.554 260.383 141.679 260.383C141.804 260.383 141.928 260.383 142.053 260.383C142.178 260.383 142.304 260.383 142.429 260.383C142.554 260.383 142.68 260.383 142.806 260.383C142.932 260.383 143.058 260.383 143.184 260.383C143.31 260.383 143.437 260.383 143.564 260.383C143.69 260.383 143.817 260.383 143.944 260.383C144.071 260.383 144.199 260.383 144.326 260.383C144.454 260.383 144.581 260.383 144.709 260.383C144.837 260.383 144.965 260.383 145.094 260.383C145.222 260.383 145.351 260.383 145.48 260.383C145.608 260.383 145.737 260.383 145.866 260.383C145.996 260.383 146.125 260.383 146.255 260.383C146.384 260.383 146.514 260.383 146.644 260.383C146.774 260.383 146.904 260.383 147.034 260.383C147.165 260.383 147.295 260.383 147.426 260.383C147.557 260.383 147.688 260.383 147.819 260.383C147.95 260.383 148.082 260.383 148.213 260.383C148.345 260.383 148.477 260.383 148.609 260.383C148.741 260.383 148.873 260.383 149.005 260.383C149.137 260.383 149.27 260.383 149.403 260.383C149.536 260.383 149.668 260.383 149.802 260.383C149.935 260.383 150.068 260.383 150.202 260.383C150.335 260.383 150.469 260.383 150.603 260.383C150.737 260.383 150.871 260.383 151.005 260.383C151.139 260.383 151.274 260.383 151.408 260.383C151.543 260.383 151.678 260.383 151.813 260.383C151.948 260.383 152.083 260.383 152.218 260.383C152.354 260.383 152.489 260.383 152.625 260.383C152.761 260.383 152.897 260.383 153.033 260.383C153.169 260.383 153.305 260.383 153.442 260.383C153.578 260.383 153.715 260.383 153.852 260.383C153.989 260.383 154.126 260.383 154.263 260.383C154.4 260.383 154.538 260.383 154.675 260.383C154.813 260.383 154.95 260.383 155.088 260.383C155.226 260.383 155.364 260.383 155.503 260.383C155.641 260.383 155.779 260.383 155.918 260.383C156.057 260.383 156.196 260.383 156.334 260.383C156.473 260.383 156.613 260.383 156.752 260.383C156.891 260.383 157.031 260.383 157.17 260.383C157.31 260.383 157.45 260.383 157.59 260.383C157.73 260.383 157.87 260.383 158.01 260.383C158.151 260.383 158.291 260.383 158.432 260.383C158.573 260.383 158.714 260.383 158.855 260.383C158.996 260.383 159.137 260.383 159.278 260.383C159.419 260.383 159.561 260.383 159.703 260.383C159.844 260.383 159.986 260.383 160.128 260.383C160.27 260.383 160.412 260.383 160.555 260.383C160.697 260.383 160.84 260.383 160.982 260.383C161.125 260.383 161.268 260.383 161.411 260.383C161.554 260.383 161.697 260.383 161.84 260.383C161.983 260.383 162.127 260.383 162.27 260.383C162.414 260.383 162.558 260.383 162.702 260.383C162.846 260.383 162.99 260.383 163.134 260.383C163.278 260.383 163.423 260.383 163.567 260.383C163.712 260.383 163.856 260.383 164.001 260.383C164.146 260.383 164.291 260.383 164.436 260.383C164.581 260.383 164.727 260.383 164.872 260.383C165.018 260.383 165.163 260.383 165.309 260.383C165.455 260.383 165.601 260.383 165.747 260.383C165.893 260.383 166.039 260.383 166.185 260.383C166.332 260.383 166.478 260.383 166.625 260.383C166.772 260.383 166.918 260.383 167.065 260.383C167.212 260.383 167.359 260.383 167.507 260.383C167.654 260.383 167.801 260.383 167.949 260.383C168.096 260.383 168.244 260.383 168.392 260.383C168.539 260.383 168.687 260.383 168.835 260.383C168.984 260.383 169.132 260.383 169.28 260.383C169.429 260.383 169.577 260.383 169.726 260.383C169.874 260.383 170.023 260.383 170.172 260.383C170.321 260.383 170.47 260.383 170.619 260.383C170.768 260.383 170.918 260.383 171.067 260.383C171.217 260.383 171.366 260.383 171.516 260.383C171.666 260.383 171.815 260.383 171.965 260.383C172.115 260.383 172.266 260.383 172.416 260.383C172.566 260.383 172.716 260.383 172.867 260.383C173.017 260.383 173.168 260.383 173.319 260.383C173.47 260.383 173.621 260.383 173.772 260.383C173.923 260.383 174.074 260.383 174.225 260.383C174.376 260.383 174.528 260.383 174.679 260.383C174.831 260.383 174.982 260.383 175.134 260.383C175.286 260.383 175.438 260.383 175.59 260.383C175.742 260.383 175.894 260.383 176.046 260.383C176.199 260.383 176.351 260.383 176.504 260.383C176.656 260.383 176.809 260.383 176.962 260.383C177.114 260.383 177.267 260.383 177.42 260.383C177.573 260.383 177.726 260.383 177.88 260.383C178.033 260.383 178.186 260.383 178.34 260.383C178.493 260.383 178.647 260.383 178.8 260.383C178.954 260.383 179.108 260.383 179.262 260.383C179.416 260.383 179.57 260.383 179.724 260.383C179.878 260.383 180.032 260.383 180.187 260.383C180.341 260.383 180.496 260.383 180.65 260.383C180.805 260.383 180.96 260.383 181.114 260.383C181.269 260.383 181.424 260.383 181.579 260.383C181.734 260.383 181.889 260.383 182.045 260.383C182.2 260.383 182.355 260.383 182.511 260.383C182.666 260.383 182.822 260.383 182.977 260.383C183.133 260.383 183.289 260.383 183.445 260.383C183.601 260.383 183.757 260.383 183.913 260.383C184.069 260.383 184.225 260.383 184.381 260.383C184.538 260.383 184.694 260.383 184.851 260.383C185.007 260.383 185.164 260.383 185.32 260.383C185.477 260.383 185.634 260.383 185.791 260.383C185.948 260.383 186.105 260.383 186.262 260.383C186.419 260.383 186.576 260.383 186.733 260.383C186.891 260.383 187.048 260.383 187.205 260.383C187.363 260.383 187.52 260.383 187.678 260.383C187.836 260.383 187.993 260.383 188.151 260.383C188.309 260.383 188.467 260.383 188.625 260.383C188.783 260.383 188.941 260.383 189.099 260.383C189.258 260.383 189.416 260.383 189.574 260.383C189.733 260.383 189.891 260.383 190.05 260.383C190.208 260.383 190.367 260.383 190.526 260.383C190.685 260.383 190.843 260.383 191.002 260.383C191.161 260.383 191.32 260.383 191.479 260.383C191.638 260.383 191.797 260.383 191.957 260.383C192.116 260.383 192.275 260.383 192.435 260.383C192.594 260.383 192.754 260.383 192.913 260.383C193.073 260.383 193.232 260.383 193.392 260.383C193.552 260.383 193.712 260.383 193.872 260.383C194.031 260.383 194.191 260.383 194.352 260.383C194.512 260.383 194.672 260.383 194.832 260.383C194.992 260.383 195.152 260.383 195.313 260.383C195.473 260.383 195.634 260.383 195.794 260.383C195.955 260.383 196.115 260.383 196.276 260.383C196.436 260.383 196.597 260.383 196.758 260.383C196.919 260.383 197.08 260.383 197.24 260.383C197.401 260.383 197.562 260.383 197.723 260.383C197.885 260.383 198.046 260.383 198.207 260.383C198.368 260.383 198.529 260.383 198.691 260.383C198.852 260.383 199.014 260.383 199.175 260.383C199.336 260.383 199.498 260.383 199.66 260.383C199.821 260.383 199.983 260.383 200.145 260.383C200.306 260.383 200.468 260.383 200.63 260.383C200.792 260.383 200.954 260.383 201.116 260.383C201.278 260.383 201.44 260.383 201.602 260.383C201.764 260.383 201.926 260.383 202.088 260.383C202.251 260.383 202.413 260.383 202.575 260.383C202.738 260.383 202.9 260.383 203.063 260.383C203.225 260.383 203.388 260.383 203.55 260.383C203.713 260.383 203.875 260.383 204.038 260.383C204.201 260.383 204.363 260.383 204.526 260.383C204.689 260.383 204.852 260.383 205.015 260.383C205.178 260.383 205.341 260.383 205.504 260.383C205.667 260.383 205.83 260.383 205.993 260.383C206.156 260.383 206.319 260.383 206.482 260.383C206.645 260.383 206.809 260.383 206.972 260.383C207.135 260.383 207.298 260.383 207.462 260.383C207.625 260.383 207.789 260.383 207.952 260.383C208.116 260.383 208.279 260.383 208.443 260.383C208.606 260.383 208.77 260.383 208.934 260.383C209.097 260.383 209.261 260.383 209.425 260.383C209.588 260.383 209.752 260.383 209.916 260.383C210.08 260.383 210.244 260.383 210.408 260.383C210.571 260.383 210.735 260.383 210.899 260.383C211.063 260.383 211.227 260.383 211.391 260.383C211.555 260.383 211.72 260.383 211.884 260.383C212.048 260.383 212.212 260.383 212.376 260.383C212.54 260.383 212.705 260.383 212.869 260.383C213.033 260.383 213.197 260.383 213.362 260.383C213.526 260.383 213.69 260.383 213.855 260.383C214.019 260.383 214.184 260.383 214.348 260.383C214.513 260.383 214.677 260.383 214.842 260.383C215.006 260.383 215.171 260.383 215.335 260.383C215.5 260.383 215.664 260.383 215.829 260.383C215.994 260.383 216.158 260.383 216.323 260.383C216.488 260.383 216.652 260.383 216.817 260.383C216.982 260.383 217.147 260.383 217.311 260.383C217.476 260.383 217.641 260.383 217.806 260.383C217.971 260.383 218.135 260.383 218.3 260.383C218.465 260.383 218.63 260.383 218.795 260.383C218.96 260.383 219.125 260.383 219.29 260.383C219.455 260.383 219.62 260.383 219.785 260.383C219.95 260.383 220.115 260.383 220.28 260.383C220.445 260.383 220.61 260.383 220.775 260.383C220.94 260.383 221.105 260.383 221.27 260.383C221.435 260.383 221.6 260.383 221.765 260.383C221.93 260.383 222.095 260.383 222.261 260.383C222.426 260.383 222.591 260.383 222.756 260.383C222.921 260.383 223.086 260.383 223.251 260.383C223.417 260.383 223.582 260.383 223.747 260.383C223.912 260.383 224.077 260.383 224.243 260.383C224.408 260.383 224.573 260.383 224.738 260.383C224.903 260.383 225.069 260.383 225.234 260.383C225.399 260.383 225.564 260.383 225.73 260.383C225.895 260.383 226.06 260.383 226.225 260.383C226.391 260.383 226.556 260.383 226.721 260.383C226.886 260.383 227.052 260.383 227.217 260.383C227.382 260.383 227.547 260.383 227.713 260.383C227.878 260.383 228.043 260.383 228.208 260.383C228.374 260.383 228.539 260.383 228.704 260.383C228.869 260.383 229.035 260.383 229.2 260.383C229.365 260.383 229.53 260.383 229.696 260.383C229.861 260.383 230.026 260.383 230.191 260.383C230.357 260.383 230.522 260.383 230.687 260.383C230.852 260.383 231.017 260.383 231.183 260.383C231.348 260.383 231.513 260.383 231.678 260.383C231.843 260.383 232.008 260.383 232.174 260.383C232.339 260.383 232.504 260.383 232.669 260.383C232.834 260.383 232.999 260.383 233.164 260.383C233.329 260.383 233.494 260.383 233.66 260.383C233.825 260.383 233.99 260.383 234.155 260.383C234.32 260.383 234.485 260.383 234.65 260.383C234.815 260.383 234.98 260.383 235.145 260.383C235.31 260.383 235.475 260.383 235.64 260.383C235.805 260.383 235.97 260.383 236.134 260.383C236.299 260.383 236.464 260.383 236.629 260.383C236.794 260.383 236.959 260.383 237.124 260.383C237.288 260.383 237.453 260.383 237.618 260.383C237.783 260.383 237.947 260.383 238.112 260.383C238.277 260.383 238.442 260.383 238.606 260.383C238.771 260.383 238.936 260.383 239.1 260.383C239.265 260.383 239.429 260.383 239.594 260.383C239.758 260.383 239.923 260.383 240.088 260.383C240.252 260.383 240.416 260.383 240.581 260.383C240.745 260.383 240.91 260.383 241.074 260.383C241.239 260.383 241.403 260.383 241.567 260.383C241.732 260.383 241.896 260.383 242.06 260.383C242.224 260.383 242.389 260.383 242.553 260.383C242.717 260.383 242.881 260.383 243.045 260.383C243.209 260.383 243.373 260.383 243.537 260.383C243.701 260.383 243.865 260.383 244.029 260.383C244.193 260.383 244.357 260.383 244.521 260.383C244.685 260.383 244.849 260.383 245.013 260.383C245.176 260.383 245.34 260.383 245.504 260.383C245.668 260.383 245.831 260.383 245.995 260.383C246.159 260.383 246.322 260.383 246.486 260.383C246.649 260.383 246.813 260.383 246.976 260.383C247.14 260.383 247.303 260.383 247.466 260.383C247.63 260.383 247.793 260.383 247.956 260.383C248.12 260.383 248.283 260.383 248.446 260.383C248.609 260.383 248.772 260.383 248.935 260.383C249.098 260.383 249.262 260.383 249.424 260.383C249.587 260.383 249.75 260.383 249.913 260.383C250.076 260.383 250.239 260.383 250.402 260.383C250.564 260.383 250.727 260.383 250.89 260.383C251.052 260.383 251.215 260.383 251.378 260.383C251.54 260.383 251.703 260.383 251.865 260.383C252.028 260.383 252.19 260.383 252.352 260.383C252.515 260.383 252.677 260.383 252.839 260.383C253.001 260.383 253.163 260.383 253.325 260.383C253.487 260.383 253.65 260.383 253.811 260.383C253.973 260.383 254.135 260.383 254.297 260.383C254.459 260.383 254.621 260.383 254.782 260.383C254.944 260.383 255.106 260.383 255.267 260.383C255.429 260.383 255.59 260.383 255.752 260.383C255.913 260.383 256.075 260.383 256.236 260.383C256.397 260.383 256.559 260.383 256.72 260.383C256.881 260.383 257.042 260.383 257.203 260.383C257.364 260.383 257.525 260.383 257.686 260.383C257.847 260.383 258.008 260.383 258.169 260.383C258.329 260.383 258.49 260.383 258.651 260.383C258.811 260.383 258.972 260.383 259.132 260.383C259.293 260.383 259.453 260.383 259.613 260.383C259.774 260.383 259.934 260.383 260.094 260.383C260.254 260.383 260.414 260.383 260.574 260.383C260.734 260.383 260.894 260.383 261.054 260.383C261.214 260.383 261.374 260.383 261.534 260.383C261.693 260.383 261.853 260.383 262.012 260.383C262.172 260.383 262.331 260.383 262.491 260.383C262.65 260.383 262.809 260.383 262.969 260.383C263.128 260.383 263.287 260.383 263.446 260.383C263.605 260.383 263.764 260.383 263.923 260.383C264.082 260.383 264.241 260.383 264.399 260.383C264.558 260.383 264.717 260.383 264.875 260.383C265.034 260.383 265.192 260.383 265.35 260.383C265.509 260.383 265.667 260.383 265.825 260.383C265.983 260.383 266.141 260.383 266.299 260.383C266.457 260.383 266.615 260.383 266.773 260.383C266.931 260.383 267.089 260.383 267.246 260.383C267.404 260.383 267.561 260.383 267.719 260.383C267.876 260.383 268.034 260.383 268.191 260.383C268.348 260.383 268.505 260.383 268.662 260.383C268.819 260.383 268.976 260.383 269.133 260.383C269.29 260.383 269.447 260.383 269.603 260.383C269.76 260.383 269.917 260.383 270.073 260.383C270.229 260.383 270.386 260.383 270.542 260.383C270.698 260.383 270.854 260.383 271.01 260.383C271.167 260.383 271.322 260.383 271.478 260.383C271.634 260.383 271.79 260.383 271.945 260.383C272.101 260.383 272.257 260.383 272.412 260.383C272.567 260.383 272.723 260.383 272.878 260.383C273.033 260.383 273.188 260.383 273.343 260.383C273.498 260.383 273.653 260.383 273.808 260.383C273.963 260.383 274.117 260.383 274.272 260.383C274.426 260.383 274.581 260.383 274.735 260.383C274.89 260.383 275.044 260.383 275.198 260.383C275.352 260.383 275.506 260.383 275.66 260.383C275.814 260.383 275.968 260.383 276.121 260.383C276.275 260.383 276.428 260.383 276.582 260.383C276.735 260.383 276.888 260.383 277.042 260.383C277.195 260.383 277.348 260.383 277.501 260.383C277.654 260.383 277.807 260.383 277.959 260.383C278.112 260.383 278.265 260.383 278.417 260.383C278.57 260.383 278.722 260.383 278.874 260.383C279.026 260.383 279.178 260.383 279.33 260.383C279.482 260.383 279.634 260.383 279.786 260.383C279.938 260.383 280.089 260.383 280.241 260.383C280.392 260.383 280.544 260.383 280.695 260.383C280.846 260.383 280.997 260.383 281.148 260.383C281.299 260.383 281.45 260.383 281.601 260.383C281.751 260.383 281.902 260.383 282.052 260.383C282.203 260.383 282.353 260.383 282.503 260.383C282.654 260.383 282.804 260.383 282.954 260.383C283.103 260.383 283.253 260.383 283.403 260.383C283.553 260.383 283.702 260.383 283.851 260.383C284.001 260.383 284.15 260.383 284.299 260.383C284.448 260.383 284.597 260.383 284.746 260.383C284.895 260.383 285.044 260.383 285.192 260.383C285.341 260.383 285.489 260.383 285.638 260.383C285.786 260.383 285.934 260.383 286.082 260.383C286.23 260.383 286.378 260.383 286.526 260.383C286.673 260.383 286.821 260.383 286.969 260.383C287.116 260.383 287.263 260.383 287.41 260.383C287.558 260.383 287.705 260.383 287.851 260.383C287.998 260.383 288.145 260.383 288.292 260.383C288.438 260.383 288.585 260.383 288.731 260.383C288.877 260.383 289.023 260.383 289.169 260.383C289.315 260.383 289.461 260.383 289.607 260.383C289.753 260.383 289.898 260.383 290.044 260.383C290.189 260.383 290.334 260.383 290.479 260.383C290.624 260.383 290.769 260.383 290.914 260.383C291.059 260.383 291.203 260.383 291.348 260.383C291.492 260.383 291.637 260.383 291.781 260.383C291.925 260.383 292.069 260.383 292.213 260.383C292.357 260.383 292.5 260.383 292.644 260.383C292.788 260.383 292.931 260.383 293.074 260.383C293.217 260.383 293.36 260.383 293.503 260.383V259.383ZM311.471 66.5671C310.656 64.408 310.19 61.3228 309.476 57.8545C308.771 54.4253 307.832 50.6846 306.067 47.365C304.296 44.0346 301.688 41.1182 297.652 39.3579C293.625 37.6013 288.228 37.0193 280.917 38.2505L281.083 39.2366C288.271 38.0262 293.457 38.6191 297.252 40.2745C301.04 41.9262 303.495 44.6587 305.184 47.8345C306.878 51.0213 307.795 54.6441 308.497 58.056C309.191 61.4289 309.683 64.6625 310.535 66.9201L311.471 66.5671ZM280.917 38.2505C273.703 39.4655 260.045 39.2451 242.031 38.2443L241.976 39.2428C259.962 40.242 273.738 40.4737 281.083 39.2366L280.917 38.2505ZM242.031 38.2443C227.607 37.443 206.321 37.9105 197.484 38.2439L197.522 39.2432C206.352 38.91 227.6 38.4441 241.976 39.2428L242.031 38.2443ZM81.2797 38.2964C76.4357 40.7183 67.3852 49.7771 69.0056 66.791L70.0011 66.6962C68.4215 50.1101 77.2375 41.4355 81.7269 39.1908L81.2797 38.2964ZM323.464 229.429C324.113 227.81 324.744 224.9 325.291 221.303C325.84 217.691 326.311 213.341 326.624 208.815C327.249 199.778 327.254 189.97 325.989 183.898L325.011 184.102C326.246 190.03 326.251 199.722 325.626 208.746C325.314 213.25 324.847 217.571 324.303 221.153C323.756 224.749 323.137 227.556 322.536 229.058L323.464 229.429ZM328.454 42.6499L318.954 22.1499L318.046 22.5703L327.546 43.0704L328.454 42.6499ZM318.91 22.0734C318.557 21.5695 318.011 21.145 317.339 20.7802C316.663 20.4134 315.83 20.0913 314.868 19.8062C312.946 19.2362 310.456 18.7989 307.561 18.464C301.769 17.7936 294.281 17.5248 286.306 17.4518C278.329 17.3789 269.848 17.5019 262.067 17.6181C254.281 17.7343 247.202 17.8434 242.013 17.7436L241.994 18.7435C247.204 18.8437 254.304 18.7341 262.082 18.618C269.865 18.5018 278.334 18.379 286.297 18.4518C294.264 18.5247 301.708 18.7933 307.446 19.4573C310.317 19.7895 312.742 20.2187 314.584 20.7649C315.505 21.038 316.268 21.3365 316.862 21.6591C317.46 21.9837 317.86 22.3173 318.09 22.6468L318.91 22.0734ZM242.013 17.7436C221.194 17.3433 177.979 18.9108 158.981 19.744L159.025 20.7431C178.028 19.9096 221.212 18.3438 241.994 18.7435L242.013 17.7436ZM69.3325 19.7737C65.5079 21.1644 57.8201 26.8839 57.0045 38.7092L58.0022 38.778C58.7866 27.4032 66.1654 21.9894 69.6742 20.7135L69.3325 19.7737ZM57.0045 38.7092C56.2032 50.3282 55.6699 91.5812 55.5034 110.739L56.5033 110.748C56.6701 91.5726 57.2035 50.3589 58.0022 38.778L57.0045 38.7092ZM55.5035 110.757L57.0035 167.757L58.0032 167.73L56.5032 110.73L55.5035 110.757ZM57.0063 167.798L62.0063 213.298L63.0003 213.189L58.0003 167.689L57.0063 167.798ZM62.0033 213.244V229.244H63.0033V213.244H62.0033ZM62.0045 229.278C62.3424 234.14 64.0613 241.513 68.1322 247.873C72.2127 254.247 78.6737 259.623 88.4647 260.382L88.5419 259.385C79.133 258.656 72.9273 253.508 68.9744 247.333C65.0121 241.143 63.331 233.941 63.0021 229.209L62.0045 229.278ZM314.5 134.5V103.36H313.5V134.5H314.5ZM314.498 103.319L311.502 66.7028L310.505 66.7844L313.502 103.401L314.498 103.319ZM197.503 38.2436H81.5033V39.2436H197.503V38.2436ZM326 184.009L328.5 42.869L327.5 42.8513L325 183.991L326 184.009ZM159.003 19.7436H69.5033V20.7436H159.003V19.7436ZM322.972 4.88342H264.004V5.88342H322.972V4.88342ZM264.004 4.88342H120.972V5.88342H264.004V4.88342ZM120.972 4.88342H62.0039V5.88342H120.972V4.88342ZM322.536 229.058C319.154 237.504 316.979 245.752 309.177 251.268L309.755 252.085C317.861 246.353 320.145 237.72 323.464 229.429L322.536 229.058ZM309.177 251.268C303.185 255.506 296.753 258.415 293.363 259.403L293.643 260.363C297.154 259.34 303.684 256.377 309.755 252.085L309.177 251.268ZM191.483 0.892031C207.62 1.04496 222.199 1.22199 233.496 1.38339L233.511 0.383494C222.211 0.222071 207.631 0.045018 191.493 -0.107924L191.483 0.892031ZM309.179 251.267C308.971 251.413 305.711 253.454 302.015 255.462C300.17 256.464 298.228 257.452 296.513 258.187C295.656 258.555 294.862 258.856 294.171 259.065C293.472 259.277 292.908 259.383 292.5 259.383V260.383C293.054 260.383 293.728 260.244 294.46 260.023C295.199 259.799 296.03 259.482 296.907 259.106C298.662 258.353 300.635 257.35 302.492 256.341C306.201 254.326 309.499 252.264 309.753 252.086L309.179 251.267ZM191.483 -0.107924C175.345 0.045018 160.765 0.222071 149.465 0.383494L149.479 1.38339C160.777 1.22199 175.356 1.04496 191.493 0.892031L191.483 -0.107924ZM333.972 471.383V472.383H334.028L334.083 472.377L333.972 471.383ZM380.472 387.383H379.472V387.56L379.532 387.725L380.472 387.383ZM380.472 31.3834L379.475 31.3134L379.472 31.3484V31.3834H380.472ZM335.972 0.883443L335.929 1.88252L335.972 0.883443ZM49.0036 471.383L48.8932 472.377L48.9482 472.383H49.0036V471.383ZM2.50361 387.383L3.44341 387.725L3.50361 387.56V387.383H2.50361ZM2.50361 31.3834H3.50361V31.3484L3.50116 31.3134L2.50361 31.3834ZM47.0036 0.883443L47.0466 1.88252L47.0036 0.883443ZM228.004 45.8834L228.004 44.8834L228.004 44.8834L228.004 45.8834ZM293.503 259.883V260.883H294.166L294.424 260.273L293.503 259.883ZM77.0033 240.244L76.0067 240.327L77.0033 240.244ZM71.5033 175.244L70.5059 175.317L70.507 175.329L71.5033 175.244ZM68.0033 85.2436L67.0066 85.1627L67.0015 85.2253L67.0043 85.288L68.0033 85.2436ZM69.5033 66.7436L70.5001 66.8244L70.5033 66.7841V66.7436H69.5033ZM157.003 45.8835L157.003 44.8835L156.99 44.8835L156.976 44.8838L157.003 45.8835ZM245.503 45.8835L245.503 46.8835L245.534 46.8835L245.564 46.8816L245.503 45.8835ZM311.003 108.883L311.996 108.767L311.972 108.556L311.863 108.373L311.003 108.883ZM314 134.5H315V134.442L314.993 134.384L314 134.5ZM314 205.5H313V205.612L313.025 205.721L314 205.5ZM88.5033 259.883L88.9131 258.971L88.5033 259.883ZM191.488 0.392053L191.478 1.39201L191.488 1.3921L191.497 1.39201L191.488 0.392053ZM334.083 472.377C342.443 471.448 354.952 468.212 365.353 461.486C375.777 454.744 384.178 444.421 383.972 429.37L381.972 429.397C382.166 443.546 374.318 453.306 364.267 459.806C354.192 466.322 342.001 469.485 333.862 470.39L334.083 472.377ZM383.972 429.37C383.772 414.757 383.313 404.694 382.819 398.047C382.573 394.724 382.317 392.248 382.079 390.48C381.846 388.746 381.62 387.615 381.412 387.042L379.532 387.725C379.657 388.069 379.861 388.996 380.097 390.746C380.328 392.463 380.58 394.897 380.825 398.195C381.315 404.79 381.773 414.81 381.972 429.397L383.972 429.37ZM381.47 31.4534C381.824 26.4057 379.886 18.8893 373.111 12.4463C366.33 5.99681 354.781 0.691517 336.015 -0.115634L335.929 1.88252C354.363 2.67537 365.398 7.87008 371.733 13.8956C378.075 19.9275 379.787 26.8612 379.475 31.3134L381.47 31.4534ZM381.472 387.383V31.3834H379.472V387.383H381.472ZM49.114 470.39C40.9745 469.485 28.7839 466.322 18.7092 459.806C8.6579 453.306 0.8097 443.546 1.00352 429.397L-0.996292 429.37C-1.20247 444.421 7.19933 454.744 17.6231 461.486C28.0234 468.212 40.5327 471.448 48.8932 472.377L49.114 470.39ZM1.00352 429.397C1.20334 414.81 1.66115 404.79 2.15087 398.195C2.39577 394.897 2.64816 392.463 2.87906 390.746C3.11455 388.996 3.31855 388.069 3.44341 387.725L1.56382 387.042C1.35535 387.615 1.13019 388.746 0.896921 390.48C0.659078 392.248 0.403129 394.724 0.156362 398.047C-0.337251 404.694 -0.796118 414.757 -0.996292 429.37L1.00352 429.397ZM3.50116 31.3134C3.18873 26.8612 4.90052 19.9275 11.2428 13.8956C17.5782 7.87008 28.6128 2.67537 47.0466 1.88252L46.9606 -0.115634C28.1944 0.691517 16.6457 5.99681 9.86445 12.4463C3.09004 18.8893 1.15184 26.4057 1.50607 31.4534L3.50116 31.3134ZM3.50361 387.383V31.3834H1.50361V387.383H3.50361ZM77.9998 240.161C76.3997 220.959 73.6664 188.825 72.4997 175.159L70.507 175.329C71.6736 188.995 74.4068 221.128 76.0067 240.327L77.9998 240.161ZM72.5007 175.171C71.7509 164.923 70.6762 149.403 69.8891 136.147C69.4955 129.518 69.1741 123.46 69.0011 118.913C68.9145 116.639 68.8654 114.751 68.8625 113.361C68.8611 112.665 68.8713 112.106 68.893 111.69C68.9038 111.482 68.9171 111.321 68.9315 111.202C68.9476 111.068 68.9598 111.036 68.952 111.06L67.0547 110.427C66.9549 110.727 66.9176 111.166 66.8957 111.586C66.8713 112.054 66.861 112.654 66.8625 113.365C66.8655 114.79 66.9156 116.706 67.0025 118.989C67.1763 123.558 67.4987 129.632 67.8926 136.265C68.6805 149.534 69.7558 165.064 70.506 175.317L72.5007 175.171ZM68.952 111.06C69.0917 110.641 69.179 110.033 69.2423 109.36C69.3081 108.661 69.3551 107.803 69.3872 106.834C69.4514 104.896 69.4575 102.469 69.4283 99.8947C69.3698 94.7429 69.1693 88.9563 69.0024 85.1992L67.0043 85.288C67.1707 89.0308 67.3702 94.7942 67.4284 99.9174C67.4575 102.48 67.4511 104.873 67.3883 106.768C67.3568 107.717 67.3116 108.53 67.2511 109.173C67.1881 109.842 67.115 110.246 67.0547 110.427L68.952 111.06ZM69.0001 85.3244L70.5001 66.8244L68.5066 66.6628L67.0066 85.1627L69.0001 85.3244ZM70.5033 66.7436C70.5033 63.9884 71.4127 59.313 73.8984 55.3575C76.3562 51.4463 80.3155 48.2823 86.5 48.2823V46.2823C79.4845 46.2823 74.9455 49.9323 72.205 54.2934C69.4923 58.6102 68.5033 63.6655 68.5033 66.7436H70.5033ZM86.5 48.2823C99.7163 48.2823 138.867 47.383 157.031 46.8831L156.976 44.8838C138.806 45.3839 99.6837 46.2823 86.5 46.2823V48.2823ZM157.003 46.8835L228.004 46.8834L228.004 44.8834L157.003 44.8835L157.003 46.8835ZM228.004 46.8834L245.503 46.8835L245.503 44.8835L228.004 44.8834L228.004 46.8834ZM245.564 46.8816C248.245 46.7191 259.958 46.6672 272.072 49.0398C278.127 50.2257 284.235 52.0084 289.352 54.656C294.473 57.3057 298.518 60.777 300.591 65.3001L302.409 64.4668C300.082 59.3899 295.615 55.6445 290.271 52.8797C284.923 50.1127 278.613 48.2829 272.456 47.0771C260.147 44.6663 248.261 44.7145 245.443 44.8853L245.564 46.8816ZM300.591 65.3001C304.925 74.7558 306.494 84.2978 307.37 92.1937C307.801 96.0813 308.078 99.7269 308.427 102.58C308.776 105.428 309.229 107.853 310.143 109.394L311.863 108.373C311.195 107.247 310.768 105.239 310.413 102.337C310.058 99.44 309.807 96.0189 309.358 91.9732C308.474 84.0024 306.875 74.2111 302.409 64.4668L300.591 65.3001ZM310.01 109L313.007 134.616L314.993 134.384L311.996 108.767L310.01 109ZM313.025 205.721C315.358 216.017 311.487 226.736 306.333 236.318C303.765 241.094 300.909 245.535 298.399 249.46C295.912 253.351 293.723 256.798 292.582 259.494L294.424 260.273C295.484 257.769 297.561 254.485 300.084 250.537C302.586 246.624 305.485 242.119 308.095 237.265C313.298 227.59 317.476 216.316 314.975 205.279L313.025 205.721ZM102.003 258.883C101.365 258.883 100.49 259.072 99.6145 259.257C98.6852 259.454 97.6212 259.68 96.4544 259.831C94.1199 260.132 91.4629 260.117 88.9131 258.971L88.0935 260.796C91.1185 262.154 94.1963 262.139 96.7105 261.814C97.9681 261.652 99.107 261.409 100.028 261.214C101.003 261.008 101.627 260.883 102.003 260.883V258.883ZM88.9131 258.971C86.3613 257.825 83.8878 255.986 81.9278 253.031C79.9641 250.071 78.4814 245.94 77.9998 240.161L76.0067 240.327C76.5099 246.365 78.0732 250.839 80.2612 254.137C82.453 257.441 85.2371 259.513 88.0935 260.796L88.9131 258.971ZM49.0036 472.383H333.972V470.383H49.0036V472.383ZM336.015 -0.115634C307.79 -1.32963 241.983 -1.08654 191.478 -0.607902L191.497 1.39201C242.021 0.913196 307.768 0.671285 335.929 1.88252L336.015 -0.115634ZM191.497 -0.607902C140.993 -1.08654 75.186 -1.32963 46.9606 -0.115634L47.0466 1.88252C75.2078 0.671285 140.955 0.913196 191.478 1.39201L191.497 -0.607902ZM293.503 258.883H102.003V260.883H293.503V258.883ZM149 285H232V283H149V285ZM259 312V383H261V312H259ZM232 410H149V412H232V410ZM122 383V312H120V383H122ZM149 410C134.088 410 122 397.912 122 383H120C120 399.016 132.984 412 149 412V410ZM259 383C259 397.912 246.912 410 232 410V412C248.016 412 261 399.016 261 383H259ZM232 285C246.912 285 259 297.088 259 312H261C261 295.984 248.016 283 232 283V285ZM149 283C132.984 283 120 295.984 120 312H122C122 297.088 134.088 285 149 285V283ZM313 134.5V205.5H315V134.5H313Z" fill="black" mask="url(#path-1-inside-1_2_36)"/>
</svg>
