<svg width="128" height="128" viewBox="0 0 128 128" fill="none" xmlns="http://www.w3.org/2000/svg">
<circle cx="64" cy="64" r="50" fill="#9ED1E8"/>
<path d="M14 64C14 50.7392 19.2678 38.0215 28.6447 28.6447C38.0215 19.2678 50.7392 14 64 14C77.2608 14 89.9785 19.2678 99.3553 28.6447C108.732 38.0215 114 50.7392 114 64L64 64L14 64Z" fill="#84C5DC"/>
<path d="M93.6552 50.8276L77.7931 59.7931L87.4483 77.0345L93.0796 85.7944L104 68.7586L93.6552 50.8276Z" fill="#89CA4A"/>
<path d="M75.7241 95.6552H86.7586L93.0796 85.7944L87.4483 77.0345H74.3448V70.8276L64.6896 86.6896L75.7241 101.862V95.6552Z" fill="#B0E081"/>
<path d="M59.8621 77.0345H40.5517L34.6101 86.6896L40.5517 96.3448H59.8621V77.0345Z" fill="#B1E081"/>
<path d="M42.6207 52.8965H33.6552H24.6897L30.8966 57.0345L27.4483 63.2414L24 69.4483L34.6101 86.6896L40.5517 77.0345L46.7586 65.3103L52.9655 68.7586L47.7931 60.8276L42.6207 52.8965Z" fill="#89CA4A"/>
<path d="M40.5517 77.0345L46.7586 65.3103L52.9655 68.7586L47.7931 60.8276L42.6207 52.8965H33.6552H24.6897L30.8966 57.0345L27.4483 63.2414L24 69.4483L34.6101 86.6896M40.5517 77.0345H59.8621V96.3448H40.5517L34.6101 86.6896M40.5517 77.0345L34.6101 86.6896M87.4483 77.0345H74.3448V70.8276L64.6896 86.6896L75.7241 101.862V95.6552H86.7586L93.0796 85.7944M87.4483 77.0345L77.7931 59.7931L93.6552 50.8276L104 68.7586L93.0796 85.7944M87.4483 77.0345L93.0796 85.7944M93.6552 86.6896L93.0796 85.7944" stroke="#84C5DC" stroke-width="1.37931"/>
<path d="M27.5 63.5L31 57L26 53.5L42.5 53L50 64.5" stroke="#9ED1E8"/>
<path fill-rule="evenodd" clip-rule="evenodd" d="M70.8966 26.9655L64.6897 37.0345L70.8966 47.3793L64.6897 51.5172L83.3104 50.8276L92.2759 34.9655L86.7587 38.4138L79.1725 27.3793L70.8966 26.9655Z" fill="#B0E081"/>
<path d="M37.1035 45.3103L54.3449 54.2759L64.6897 37.0345L70.8966 26.9655L51.5863 26L37.1035 45.3103Z" fill="#89CA4A"/>
<path d="M64.6897 37.0345L54.3449 54.2759L37.1035 45.3103L51.5863 26L70.8966 26.9655M64.6897 37.0345L70.8966 47.3793L64.6897 51.5172L83.3104 50.8276L92.2759 34.9655L86.7587 38.4138L79.1725 27.3793L70.8966 26.9655M64.6897 37.0345L70.8966 26.9655" stroke="#9ED1E8" stroke-width="1.37931"/>
<path d="M27.467 63.7454C27.4735 63.7446 27.4776 63.7408 27.4851 63.7408" stroke="#9ED1E8" stroke-width="0.5" stroke-linecap="round"/>
<path d="M27.3225 63.664C27.3225 63.6274 27.3348 63.5935 27.3403 63.5578C27.3417 63.5488 27.339 63.5391 27.3411 63.5302C27.3446 63.5153 27.3586 63.5011 27.3659 63.4875C27.3824 63.4571 27.4121 63.4456 27.3893 63.4923C27.3853 63.5004 27.3651 63.546 27.3521 63.5445C27.3433 63.5435 27.3444 63.5265 27.3315 63.5239" stroke="#9ED1E8" stroke-width="0.5"/>
<path d="M27.6479 63.6233C27.6353 63.6359 27.6257 63.6309 27.6228 63.6118C27.6176 63.577 27.6202 63.5393 27.6208 63.5043C27.6215 63.4616 27.6242 63.4199 27.6524 63.3856C27.6761 63.3568 27.6886 63.3491 27.6886 63.3883C27.6886 63.421 27.6861 63.4439 27.666 63.4697" stroke="#9ED1E8" stroke-width="0.1"/>
<path d="M27.1779 63.5329C27.1836 63.5322 27.1844 63.4277 27.1957 63.4117C27.2111 63.3899 27.2566 63.3574 27.2748 63.3908C27.2894 63.4177 27.3306 63.5465 27.2683 63.5465C27.1986 63.5465 27.2334 63.3831 27.3079 63.4511C27.3406 63.4809 27.3442 63.5549 27.331 63.5945C27.3145 63.644 27.2953 63.5854 27.2858 63.5611C27.2719 63.5251 27.2556 63.4619 27.2728 63.4232C27.2759 63.4163 27.2768 63.438 27.277 63.4456C27.2783 63.4879 27.2721 63.5255 27.2557 63.5646C27.2551 63.5661 27.2329 63.6184 27.2296 63.6163C27.2186 63.6091 27.2276 63.5373 27.2276 63.5244C27.2276 63.5121 27.2262 63.4985 27.2278 63.4863C27.2295 63.4738 27.2425 63.5072 27.2457 63.5194C27.2574 63.565 27.2592 63.6103 27.2592 63.657C27.2592 63.6619 27.2568 63.6649 27.2512 63.6617C27.2236 63.6463 27.2021 63.5986 27.1884 63.5721C27.1758 63.5477 27.1679 63.5217 27.1608 63.4953C27.1603 63.4932 27.1561 63.4657 27.1523 63.4664C27.1301 63.4704 27.1157 63.5349 27.1124 63.4915C27.109 63.4482 27.1101 63.4046 27.1101 63.3612C27.1101 63.332 27.1127 63.3716 27.1096 63.3836C27.1084 63.3881 27.0924 63.4422 27.092 63.417C27.0916 63.3917 27.0956 63.3696 27.1098 63.3482C27.1211 63.3313 27.1191 63.342 27.1191 63.3183C27.1191 63.2942 27.1011 63.3447 27.1011 63.3205C27.1011 63.3153 27.1008 63.31 27.1013 63.3047C27.1014 63.3038 27.1048 63.2909 27.1046 63.2909C27.1025 63.2909 27.0883 63.3069 27.0877 63.3093C27.0844 63.3245 27.0839 63.3405 27.0762 63.3544C27.0727 63.3608 27.0743 63.3678 27.0739 63.3748C27.0733 63.386 27.0633 63.3918 27.0604 63.4019C27.0533 63.4268 27.0544 63.3748 27.0433 63.3748C27.0173 63.3748 27.0423 63.6654 27.0423 63.6796C27.0423 63.7713 27.0423 63.8626 27.0423 63.9532C27.0423 63.9845 27.0625 63.9803 27.0903 63.9803C27.1097 63.9803 27.1264 63.9894 27.1452 63.9894C27.1575 63.9894 27.1702 63.9885 27.1824 63.9896C27.2292 63.9939 27.3022 64.0075 27.3471 63.9871C27.3681 63.9776 27.4042 63.9849 27.4269 63.9849C27.4526 63.9849 27.4746 63.9719 27.4997 63.9713C27.5131 63.971 27.529 63.9739 27.5417 63.969C27.5666 63.9595 27.5946 63.9623 27.6208 63.9623C27.6366 63.9623 27.6503 63.9567 27.6659 63.9542C27.7168 63.9463 27.6387 63.9166 27.6208 63.908" stroke="#9ED1E8" stroke-width="0.1" stroke-linecap="round"/>
<path d="M27.2185 63.9532C27.238 63.9467 27.1779 63.9471 27.1578 63.9432C27.1542 63.9425 27.1218 63.9379 27.1201 63.9321C27.1146 63.9133 27.2192 63.9081 27.2301 63.907C27.2401 63.9061 27.2716 63.8944 27.2456 63.901C27.2263 63.9059 27.2066 63.916 27.1889 63.9251C27.1466 63.9471 27.2273 63.9275 27.2359 63.9266C27.239 63.9263 27.2666 63.9282 27.2665 63.9284C27.2493 63.9427 27.2011 63.9047 27.1894 63.8965C27.1591 63.8751 27.1273 63.8525 27.1046 63.8227C27.0901 63.8037 27.092 63.7861 27.092 63.7634C27.092 63.7415 27.0921 63.7221 27.1033 63.7027C27.1172 63.6785 27.1196 63.6867 27.1156 63.7135C27.1103 63.7488 27.0939 63.7818 27.0922 63.8177C27.0908 63.8492 27.0959 63.8656 27.1146 63.8272C27.1384 63.7782 27.1469 63.7229 27.1643 63.6715C27.1659 63.6667 27.1814 63.6009 27.1914 63.6289C27.209 63.6778 27.2165 63.7359 27.222 63.7875C27.2255 63.8193 27.2229 63.8081 27.2231 63.781C27.2232 63.7504 27.2235 63.66 27.2311 63.6896C27.2379 63.7162 27.2331 63.752 27.2321 63.7795C27.2318 63.7881 27.2056 63.6605 27.2168 63.7263C27.2195 63.7421 27.2491 63.8042 27.2359 63.8197C27.2305 63.826 27.2221 63.8182 27.2163 63.8182C27.209 63.8182 27.2049 63.836 27.2035 63.8413C27.2033 63.8421 27.2223 63.8402 27.2256 63.8402C27.2442 63.8402 27.2596 63.8438 27.2768 63.8515C27.2841 63.8549 27.3249 63.8674 27.2999 63.8674" stroke="#9ED1E8" stroke-width="0.1" stroke-linecap="round"/>
<path d="M27.6705 63.8312C27.6723 63.7974 27.6889 63.7684 27.7021 63.7378C27.7247 63.6854 27.7445 63.6319 27.7674 63.5797C27.7788 63.5535 27.7903 63.5157 27.8106 63.4943C27.8358 63.4676 27.7789 63.5609 27.7581 63.5912C27.7222 63.6434 27.6861 63.6933 27.6554 63.7489C27.6459 63.7661 27.6327 63.786 27.6283 63.8056C27.6217 63.8346 27.67 63.7915 27.6705 63.7911C27.7196 63.7468 27.7561 63.6903 27.802 63.6429C27.8103 63.6344 27.8194 63.6266 27.8274 63.6178C27.8355 63.6089 27.8251 63.6421 27.8219 63.6537C27.8034 63.7198 27.7609 63.7793 27.727 63.8383C27.7243 63.843 27.7216 63.8477 27.7187 63.8523C27.7179 63.8536 27.7185 63.8492 27.7192 63.8478C27.7317 63.8223 27.7468 63.7984 27.7636 63.7755C27.7905 63.7389 27.8204 63.7017 27.8568 63.6741C27.8886 63.6499 27.8523 63.7048 27.8472 63.7132C27.8081 63.7779 27.7545 63.8318 27.7086 63.8915C27.7 63.9027 27.6737 63.9354 27.6848 63.9266C27.7158 63.9021 27.7407 63.8652 27.7661 63.8352C27.7965 63.7994 27.8267 63.763 27.859 63.7288C27.862 63.7257 27.8713 63.7177 27.8698 63.7218C27.8578 63.7544 27.8351 63.785 27.8161 63.8137C27.7997 63.8383 27.7818 63.8621 27.7674 63.888C27.7624 63.897 27.747 63.9204 27.7568 63.9171C27.7667 63.9138 27.7811 63.8889 27.7862 63.8822C27.8012 63.8622 27.8155 63.8417 27.8296 63.8212C27.8485 63.7938 27.8674 63.7664 27.8874 63.7398C27.9149 63.7032 27.8414 63.8192 27.8156 63.8571C27.805 63.8727 27.7704 63.9054 27.7704 63.9266C27.7704 63.9331 27.7759 63.9149 27.7794 63.9096C27.7924 63.8898 27.8088 63.8725 27.8231 63.8538C27.8409 63.8306 27.86 63.8089 27.8789 63.7865C27.8865 63.7775 27.9123 63.7535 27.902 63.7594C27.8837 63.7698 27.8726 63.7872 27.8603 63.8036C27.8502 63.817 27.8306 63.826 27.8231 63.8403C27.816 63.8538 27.8115 63.873 27.806 63.888C27.8005 63.9032 27.7746 63.9306 27.7583 63.9306C27.7167 63.9306 27.7699 63.9409 27.7835 63.9477C27.794 63.953 27.7349 63.9585 27.7302 63.9522C27.7144 63.9311 27.7867 63.891 27.7965 63.8814C27.8258 63.853 27.8488 63.8225 27.8671 63.786C27.8733 63.7735 27.8759 63.7598 27.8819 63.7479C27.8894 63.7329 27.9055 63.7305 27.912 63.7137C27.9143 63.7077 27.923 63.6659 27.916 63.6836C27.9029 63.717 27.8831 63.7542 27.8648 63.785C27.8578 63.7968 27.8164 63.8524 27.8502 63.8438C27.8691 63.839 27.8824 63.8092 27.8871 63.7926C27.8904 63.781 27.8756 63.8021 27.8738 63.8041C27.853 63.8275 27.8426 63.8573 27.8289 63.8847C27.8266 63.8894 27.8257 63.9005 27.8219 63.9035C27.8135 63.9102 27.7851 63.8222 27.7835 63.8177" stroke="#9ED1E8" stroke-width="0.1" stroke-linecap="round"/>
<path d="M26.9949 63.5798C26.982 63.6636 26.8887 63.6933 26.8509 63.7604C26.8124 63.8286 26.9024 63.7113 26.9113 63.6999C26.9532 63.6463 26.9973 63.6008 27.035 63.5442C27.0385 63.539 27.0619 63.52 27.0523 63.5296C27.0194 63.5625 26.9844 63.5901 26.9611 63.6314C26.9309 63.685 26.9074 63.668 26.9327 63.6154C26.9544 63.5703 26.9903 63.5335 27.0114 63.4878C27.0143 63.4815 27.0347 63.4524 27.0167 63.4749C26.994 63.5033 26.9726 63.5327 26.95 63.5611C26.9389 63.5752 26.8892 63.6551 26.8989 63.6421C26.9557 63.5654 27.0166 63.4942 27.071 63.4157C27.1179 63.348 27.0012 63.438 26.9847 63.4504C26.9462 63.4795 26.9126 63.5131 26.8891 63.5558C26.8456 63.6349 26.8342 63.7652 26.7468 63.8137C26.7222 63.8274 26.6709 63.8672 26.6588 63.8884C26.65 63.9038 26.5715 63.962 26.625 63.964C26.6592 63.9653 26.6938 63.9648 26.7273 63.9578C26.756 63.9517 26.7857 63.94 26.8148 63.94C26.8547 63.94 26.8988 63.93 26.9327 63.9178C26.9579 63.9087 26.9815 63.9107 27.0047 63.8955C27.0243 63.8827 27.0084 63.8836 26.9896 63.8857C26.9435 63.8911 26.8971 63.9038 26.8513 63.912C26.8366 63.9146 26.7919 63.924 26.8255 63.9026C26.8643 63.878 26.9059 63.8606 26.9465 63.8395C26.9558 63.8346 27.0221 63.7872 27.0012 63.7955C26.9399 63.8196 26.8834 63.8527 26.8206 63.8742C26.8125 63.877 26.7654 63.8991 26.794 63.8804C26.8439 63.8478 26.8926 63.8163 26.938 63.7772C26.9669 63.7524 27.0536 63.6794 27.0198 63.6972C26.9882 63.714 26.9599 63.7466 26.9309 63.7684C26.8923 63.7973 26.9099 63.7715 26.9274 63.7443C26.9458 63.7156 26.9751 63.6975 26.9932 63.6692C27.009 63.6444 26.9748 63.6943 26.9709 63.6985C26.9572 63.7138 26.9428 63.7159 26.9709 63.7159" stroke="#9ED1E8" stroke-width="0.1" stroke-linecap="round"/>
<path d="M26.9805 63.4336C26.9811 63.4378 27.0152 63.3908 27.0213 63.3819C27.034 63.3636 27.0565 63.3459 27.0723 63.3301C27.0747 63.3277 27.0934 63.3085 27.0934 63.3071C27.0934 63.2994 27.0853 63.3202 27.0801 63.3259C27.0732 63.3336 27.0683 63.3418 27.0619 63.3498C27.029 63.391 26.9695 63.4094 26.9415 63.454C26.9094 63.505 26.8627 63.5454 26.834 63.5996C26.8202 63.6258 26.7967 63.6472 26.7794 63.6714C26.7665 63.6893 26.7514 63.7079 26.7366 63.7242C26.7134 63.7496 26.6849 63.7727 26.6689 63.8029C26.6606 63.8187 26.646 63.8319 26.6337 63.8446C26.6244 63.8543 26.6165 63.8707 26.6055 63.878C26.5794 63.8955 26.5716 63.9358 26.5528 63.9588C26.546 63.967 26.5357 63.9858 26.5552 63.9761C26.5827 63.9624 26.6099 63.9448 26.6368 63.9295C26.6704 63.9103 26.6981 63.8983 26.7359 63.8891C26.7513 63.8854 26.7979 63.8785 26.7822 63.8789C26.7332 63.8803 26.6732 63.8985 26.6376 63.9327C26.6349 63.9353 26.6275 63.9362 26.6259 63.9384C26.6238 63.9413 26.65 63.9414 26.6511 63.9414C26.6882 63.9414 26.7248 63.9453 26.762 63.9453C26.8412 63.9453 26.9188 63.9727 26.9981 63.9727C27.0266 63.9727 27.0571 63.9773 27.0821 63.9648" stroke="#9ED1E8" stroke-width="0.1" stroke-linecap="round"/>
<path d="M26.5 64L27.5 62.5H28V63" stroke="#9ED1E8" stroke-width="0.1"/>
<path d="M49.8525 64.4927C49.8052 64.4868 49.9075 64.3617 49.9216 64.3405" stroke="#9ED1E8" stroke-width="0.1" stroke-linecap="round"/>
<path d="M50.0393 64.4443C50.0393 64.3282 50.1726 64.2961 50.2469 64.2367" stroke="#84C5DC" stroke-width="0.1" stroke-linecap="round"/>
<path d="M50.0742 64.0781C50.0787 64.0842 50.0941 64.0824 50.1002 64.0829C50.1285 64.0852 50.1566 64.0893 50.1848 64.092C50.2115 64.0946 50.238 64.0929 50.2647 64.0938C50.2665 64.0938 50.2726 64.0946 50.2725 64.0977C50.272 64.1081 50.2364 64.1223 50.2308 64.125C50.1449 64.1678 50.0512 64.1951 49.9683 64.2439C49.9656 64.2455 49.8807 64.3015 49.9236 64.2839C50.0108 64.248 50.0951 64.203 50.1762 64.155C50.185 64.1497 50.2108 64.1369 50.2057 64.1458C50.188 64.1762 50.1498 64.2 50.1219 64.2192C50.0484 64.2698 49.9658 64.316 49.8841 64.352C49.8253 64.3779 50.0005 64.2978 50.0598 64.2734C50.1169 64.25 50.1749 64.2296 50.2326 64.2079C50.2478 64.2022 50.2848 64.1779 50.3025 64.1793C50.3069 64.1796 50.2966 64.1862 50.2929 64.1888C50.2755 64.2013 50.254 64.214 50.2361 64.2244C50.1651 64.2655 50.0929 64.3042 50.0234 64.3477C49.9773 64.3765 49.9314 64.4062 49.8906 64.4423C49.8838 64.4483 49.8643 64.4647 49.8732 64.4631C49.9054 64.4573 49.9392 64.4254 49.9643 64.4076C50.033 64.3588 50.1024 64.3112 50.1718 64.2635C50.2122 64.2357 50.2518 64.2066 50.2925 64.1793C50.3009 64.1736 50.3227 64.1566 50.3198 64.1662C50.3113 64.1944 50.2798 64.2239 50.2617 64.2452C50.2238 64.2898 50.182 64.3296 50.1388 64.3689C50.1078 64.3973 50.0767 64.4253 50.0486 64.4566C50.0477 64.4576 50.045 64.4606 50.0459 64.4596C50.0645 64.4399 50.0817 64.4192 50.0991 64.3984C50.1606 64.3249 50.227 64.2633 50.307 64.2103C50.3073 64.2101 50.3427 64.1873 50.3433 64.1905C50.3464 64.2072 50.3112 64.2428 50.3025 64.2526C50.2668 64.2925 50.2238 64.3257 50.1811 64.3576C50.1571 64.3757 50.122 64.3931 50.1022 64.4165C50.091 64.4296 50.1328 64.4005 50.1466 64.3904C50.1876 64.3605 50.2268 64.3285 50.268 64.2988C50.3034 64.2733 50.3391 64.2481 50.3745 64.2224C50.392 64.2097 50.4018 64.2019 50.3719 64.2168C50.3435 64.231 50.316 64.2467 50.2901 64.2652C50.2898 64.2654 50.2533 64.2899 50.2662 64.2917C50.2915 64.2952 50.4399 64.2376 50.4209 64.2023C50.4072 64.1765 50.3518 64.1867 50.3407 64.1524C50.3342 64.1324 50.318 64.1188 50.3133 64.0985C50.3052 64.0637 50.2647 64.0586 50.2363 64.0586C50.1741 64.0586 50.1122 64.0557 50.0516 64.0673C50.017 64.0739 49.9793 64.0634 49.9453 64.0712C49.9263 64.0755 49.8858 64.0745 49.9283 64.0851C49.9598 64.0929 50.0552 64.0856 50.0696 64.1289C50.0779 64.1539 50.0401 64.1595 50.0249 64.1641C49.986 64.1759 49.9464 64.1857 49.9073 64.1971C49.9069 64.1972 49.888 64.2032 49.8888 64.2044C49.8919 64.2091 49.9406 64.1866 49.9426 64.1858C49.9678 64.1756 49.9933 64.1641 50.021 64.1641C50.0401 64.1641 50.0142 64.2687 50.0123 64.2761C49.9874 64.372 49.9499 64.4638 49.9233 64.559C49.9193 64.5733 49.9174 64.5908 49.9181 64.5634C49.9191 64.5266 49.9215 64.4899 49.9186 64.4531C49.916 64.4209 49.9116 64.3836 49.8951 64.3548C49.8836 64.3347 49.8718 64.3915 49.8702 64.3967C49.8598 64.4293 49.8539 64.4709 49.835 64.5C49.828 64.5108 49.7995 64.4128 49.7977 64.4058C49.7912 64.3815 49.7689 64.3106 49.7829 64.3316C49.8125 64.376 49.809 64.4499 49.8077 64.5004C49.8069 64.5281 49.8057 64.5557 49.8046 64.5833C49.8042 64.5929 49.8005 64.5949 49.7968 64.5833C49.7801 64.5313 49.7719 64.4727 49.7625 64.4188C49.7548 64.3745 49.7829 64.5066 49.789 64.5512C49.7931 64.5815 49.7965 64.6122 49.7968 64.6428C49.797 64.6683 49.7912 64.6598 49.7795 64.6415C49.7445 64.5869 49.7081 64.5145 49.6536 64.4766C49.6316 64.4613 49.6668 64.5704 49.6712 64.581C49.6763 64.5933 49.6927 64.6297 49.6846 64.6189C49.6743 64.6052 49.6658 64.5886 49.6562 64.5742C49.6533 64.5699 49.6197 64.5068 49.6219 64.5321C49.6268 64.5901 49.6539 64.6489 49.6675 64.7055C49.6697 64.7148 49.6868 64.7789 49.6636 64.7433C49.6536 64.728 49.6259 64.6816 49.6388 64.6945C49.6424 64.698 49.6406 64.7082 49.6406 64.7129C49.6406 64.7215 49.6265 64.7188 49.6206 64.7188C49.6066 64.7188 49.6036 64.7111 49.5959 64.7012C49.5877 64.6907 49.5846 64.6773 49.5781 64.6658C49.5707 64.653 49.5728 64.6349 49.5605 64.625C49.5511 64.6175 49.5392 64.5826 49.5407 64.5946C49.5436 64.6173 49.625 64.633 49.6406 64.6359C49.6699 64.6413 49.6989 64.6406 49.7287 64.6406C49.7614 64.6406 49.8022 64.648 49.8341 64.6398C49.8389 64.6385 49.8512 64.6303 49.8515 64.625C49.8522 64.6128 49.8292 64.6172 49.8226 64.6172C49.7962 64.6172 49.836 64.5962 49.8433 64.5922C49.8541 64.5863 49.8688 64.582 49.8769 64.5721C49.8891 64.5571 49.8783 64.5627 49.8689 64.5727C49.8615 64.5805 49.8476 64.5918 49.8476 64.6037C49.8476 64.6369 49.8731 64.5941 49.8524 64.5825C49.831 64.5705 49.7856 64.5762 49.7634 64.5827C49.7337 64.5913 49.7068 64.6052 49.6792 64.6185C49.6656 64.625 49.6402 64.6214 49.6258 64.6211C49.6034 64.6206 49.5813 64.6172 49.5585 64.6172C49.5409 64.6172 49.5416 64.5985 49.5321 64.589C49.5225 64.5794 49.5234 64.6014 49.5234 64.576C49.5234 64.5571 49.5266 64.6039 49.5138 64.5875C49.4977 64.5667 49.5141 64.5258 49.5253 64.5083C49.5785 64.425 49.6441 64.3589 49.7367 64.3208C49.772 64.3062 49.8083 64.2942 49.8446 64.2823C49.8541 64.2792 49.8764 64.267 49.8741 64.2767C49.8659 64.3116 49.8101 64.3473 49.7812 64.3655C49.7741 64.3699 49.7458 64.3934 49.7361 64.3911C49.7274 64.389 49.7483 64.3534 49.7491 64.3559C49.7576 64.3815 49.7314 64.4155 49.7226 64.4379C49.7133 64.4617 49.7109 64.4268 49.7109 64.4188C49.7109 64.3931 49.7136 64.3667 49.7295 64.3455C49.7349 64.3383 49.7441 64.3378 49.7491 64.3464C49.7665 64.3764 49.7274 64.4042 49.7152 64.3754C49.682 64.2971 49.8021 64.2391 49.8563 64.2153C49.8578 64.2146 49.8768 64.2092 49.8758 64.2101C49.8608 64.2239 49.8281 64.2291 49.8096 64.2342C49.7772 64.2431 49.7447 64.2495 49.7113 64.2537C49.7111 64.2537 49.679 64.2607 49.682 64.2543C49.6896 64.2384 49.7165 64.2257 49.7306 64.2175C49.7529 64.2044 49.7772 64.1963 49.8005 64.1853C49.8207 64.1758 49.8402 64.1666 49.8619 64.1608C49.8702 64.1586 49.8956 64.1563 49.8871 64.1563C49.8521 64.1563 49.8028 64.164 49.7734 64.1836" stroke="#84C5DC" stroke-width="0.1" stroke-linecap="round"/>
<path d="M49.6367 64.7148C49.6181 64.7148 49.6213 64.6943 49.6124 64.6845C49.6086 64.6802 49.6004 64.6777 49.5957 64.674C49.5867 64.667 49.5895 64.6911 49.5901 64.6957C49.5921 64.7138 49.6094 64.7499 49.5918 64.7185C49.5813 64.6999 49.5744 64.6788 49.5655 64.6602C49.56 64.6485 49.5522 64.6366 49.546 64.625C49.5355 64.6052 49.5314 64.5845 49.5254 64.5629C49.5208 64.5465 49.5099 64.5334 49.4981 64.5215C49.4856 64.509 49.4844 64.4801 49.4844 64.5165C49.4844 64.5408 49.4766 64.5081 49.4766 64.5C49.4766 64.4823 49.4766 64.4637 49.4766 64.4941C49.4766 64.5136 49.4675 64.5088 49.4609 64.4941C49.4538 64.4781 49.4544 64.4617 49.4462 64.4453C49.4355 64.4239 49.4326 64.4056 49.4601 64.3984C49.4938 64.3897 49.5284 64.3879 49.5619 64.3789C49.6105 64.3658 49.5669 64.3808 49.5477 64.3921C49.5253 64.4054 49.5513 64.3591 49.5556 64.3533C49.5804 64.3193 49.6127 64.3005 49.6524 64.2882C49.6552 64.2873 49.6732 64.2813 49.6719 64.2812C49.6398 64.2798 49.6072 64.2812 49.5751 64.2812C49.5431 64.2812 49.4739 64.2924 49.526 64.2472C49.5843 64.1967 49.66 64.1663 49.73 64.1363C49.7343 64.1345 49.7481 64.1323 49.7435 64.1328C49.7134 64.1362 49.6833 64.1408 49.6532 64.1447C49.6097 64.1504 49.5664 64.1571 49.5226 64.1597C49.4938 64.1615 49.4093 64.1608 49.4366 64.1701C49.4761 64.1836 49.5398 64.1646 49.5788 64.158C49.6419 64.1472 49.7053 64.1394 49.7687 64.1306C49.7954 64.1269 49.8743 64.1135 49.8492 64.1233C49.8286 64.1313 49.7997 64.1296 49.7784 64.1306C49.7265 64.1331 49.6744 64.1328 49.6224 64.1328C49.6096 64.1328 49.5966 64.1334 49.5838 64.1328C49.5799 64.1326 49.6282 64.1182 49.6335 64.1168C49.6801 64.1044 49.7271 64.0965 49.7747 64.089C49.7917 64.0863 49.812 64.0855 49.8283 64.0801C49.83 64.0795 49.7867 64.0783 49.7858 64.0783C49.7315 64.0792 49.6772 64.0818 49.6228 64.082C49.6017 64.0821 49.5806 64.082 49.5595 64.082C49.5594 64.082 49.5859 64.082 49.5901 64.082C49.66 64.082 49.73 64.082 49.7999 64.082C49.8227 64.082 49.8473 64.0848 49.8694 64.0781C49.8818 64.0744 49.8932 64.0742 49.906 64.0742C49.9267 64.0742 49.8696 64.0703 49.8637 64.0703C49.8298 64.0703 49.7969 64.0625 49.7637 64.0625C49.7574 64.0625 49.7401 64.0658 49.7448 64.0616C49.758 64.0498 49.7962 64.051 49.8125 64.0508C49.8651 64.0501 49.9179 64.0508 49.9705 64.0508C50.0125 64.0508 50.0548 64.0523 50.0968 64.0508C50.1214 64.0499 50.1463 64.0391 50.1701 64.0391C50.2124 64.0391 50.2546 64.0391 50.2969 64.0391" stroke="#84C5DC" stroke-width="0.1" stroke-linecap="round"/>
<path d="M49.5117 64.3789C49.4782 64.4032 49.4368 64.3015 49.4375 64.2765C49.4376 64.2724 49.4439 64.2821 49.4453 64.286C49.452 64.3052 49.453 64.3246 49.455 64.3446C49.4552 64.3463 49.459 64.3626 49.4563 64.3648C49.4487 64.3712 49.4239 64.3435 49.421 64.3403C49.3835 64.2998 49.3622 64.2509 49.3309 64.207C49.3253 64.1991 49.337 64.2255 49.3398 64.2348C49.3464 64.2569 49.3537 64.2786 49.3615 64.3003C49.3631 64.3048 49.3801 64.3481 49.3689 64.3309C49.3632 64.3222 49.3538 64.2926 49.355 64.3029C49.3563 64.3144 49.3661 64.3275 49.3708 64.3379C49.3812 64.3606 49.3828 64.3806 49.3828 64.4047C49.3828 64.424 49.3838 64.4496 49.3984 64.4627C49.4055 64.469 49.4144 64.4711 49.4221 64.4768C49.4303 64.483 49.4373 64.4941 49.4453 64.4991C49.4531 64.504 49.4594 64.5121 49.4668 64.5178C49.4715 64.5215 49.4839 64.5474 49.48 64.5523C49.4767 64.5565 49.4736 64.5433 49.4728 64.538C49.4701 64.5176 49.4691 64.4973 49.4631 64.4774C49.4507 64.4366 49.4293 64.3988 49.4164 64.3581C49.4077 64.3306 49.3983 64.3117 49.3815 64.2878C49.3747 64.2781 49.3693 64.2588 49.3593 64.2524C49.3439 64.2425 49.3474 64.2745 49.3476 64.2812C49.3482 64.3041 49.359 64.3315 49.3854 64.332C49.4262 64.3329 49.4497 64.3006 49.4744 64.2717C49.4782 64.2671 49.5188 64.22 49.516 64.2196C49.4618 64.2121 49.4181 64.3221 49.4004 64.2266C49.3963 64.2048 49.3878 64.1393 49.3867 64.1615C49.3852 64.1902 49.3811 64.2227 49.3671 64.2487C49.356 64.2694 49.3299 64.2464 49.3181 64.2383C49.296 64.223 49.3074 64.2415 49.3125 64.26C49.3168 64.2757 49.328 64.2861 49.3337 64.3008C49.3383 64.3125 49.3364 64.3283 49.3359 64.3407C49.3355 64.3524 49.3215 64.3455 49.3201 64.3377C49.3187 64.33 49.3164 64.3243 49.3164 64.3164C49.3164 64.302 49.3207 64.2785 49.3146 64.2656C49.3068 64.249 49.2916 64.236 49.2832 64.2207C49.2691 64.1954 49.2582 64.1691 49.2452 64.1445C49.2307 64.1172 49.2001 64.1049 49.1875 64.0766C49.1856 64.0725 49.1703 64.0558 49.1742 64.0549C49.1995 64.0493 49.238 64.0526 49.2632 64.0569C49.2947 64.0621 49.3274 64.069 49.3593 64.0703C49.3798 64.0712 49.3993 64.08 49.4199 64.0818C49.465 64.0857 49.5089 64.0976 49.5546 64.0976C49.5677 64.0976 49.5807 64.0976 49.5937 64.0976C49.5971 64.0976 49.6287 64.0957 49.6184 64.1046C49.5972 64.123 49.5398 64.1278 49.5132 64.1326C49.4829 64.138 49.4535 64.1414 49.4238 64.1484C49.4026 64.1534 49.3872 64.1641 49.365 64.1641C49.3534 64.1641 49.343 64.1626 49.3329 64.1562C49.3222 64.1496 49.3121 64.1515 49.3203 64.1406" stroke="#84C5DC" stroke-width="0.1" stroke-linecap="round"/>
<path d="M49.2891 64.0508C49.3139 64.0508 49.3384 64.0547 49.3635 64.0547C49.3803 64.0547 49.41 64.0492 49.4258 64.0556C49.4409 64.0616 49.4604 64.0586 49.4766 64.0586C49.5004 64.0586 49.5217 64.0664 49.546 64.0664C49.5795 64.0664 49.6169 64.0769 49.6506 64.0694C49.6834 64.0622 49.7206 64.0547 49.7541 64.0547C49.7593 64.0547 49.7988 64.0456 49.7852 64.0547" stroke="#84C5DC" stroke-width="0.1" stroke-linecap="round"/>
<path d="M49.4023 64.0586C49.4324 64.0452 49.4693 64.0508 49.5015 64.0508C49.5294 64.0508 49.5572 64.0508 49.5851 64.0508C49.6166 64.0508 49.6481 64.0508 49.6797 64.0508C49.7147 64.0508 49.7642 64.0599 49.7969 64.0469" stroke="#84C5DC" stroke-width="0.1" stroke-linecap="round"/>
<path d="M49.2773 64.1914C49.2757 64.1869 49.2461 64.1425 49.2461 64.1671C49.2461 64.1797 49.2727 64.1991 49.2795 64.2107C49.283 64.2168 49.309 64.2397 49.296 64.2491C49.278 64.2622 49.2581 64.2071 49.2517 64.197C49.2414 64.1809 49.2344 64.1641 49.2207 64.1504C49.21 64.1396 49.1962 64.1166 49.1953 64.1016C49.1935 64.0704 49.1555 64.0721 49.1484 64.0508" stroke="#84C5DC" stroke-width="0.1" stroke-linecap="round"/>
<path d="M49.1445 64.043C49.1379 64.0426 49.1314 64.0407 49.125 64.0391" stroke="#84C5DC" stroke-width="0.1" stroke-linecap="round"/>
<path d="M80 63.5L78 60L93.5 51.5L101 64" stroke="#9ED1E8"/>
<path d="M78.5 60.5L80.5 64" stroke="#9ED1E8" stroke-width="0.8"/>
<path d="M78.8242 60.3945C78.8242 60.3701 78.8231 60.3577 78.8047 60.3398C78.7881 60.3237 78.772 60.3132 78.7557 60.2969C78.7431 60.2843 78.7363 60.2679 78.7257 60.2539C78.7157 60.2406 78.7033 60.2298 78.6953 60.2148C78.6925 60.2094 78.6732 60.1863 78.6932 60.1996C78.7078 60.2094 78.7151 60.2251 78.7266 60.2376C78.7359 60.2478 78.7473 60.2546 78.7559 60.2658C78.7704 60.2847 78.7825 60.3065 78.791 60.3288C78.7955 60.3405 78.8013 60.3673 78.8106 60.3765C78.8254 60.3913 78.7991 60.3362 78.7913 60.3168C78.7833 60.2972 78.7773 60.2799 78.7713 60.2602C78.764 60.2363 78.7511 60.2144 78.7422 60.1912C78.7386 60.1817 78.7365 60.1717 78.7327 60.1628C78.7292 60.1546 78.7422 60.1787 78.7422 60.1875" stroke="#9ED1E8" stroke-width="0.1" stroke-linecap="round"/>
<path d="M79.8564 63.7352C79.8564 63.7372 79.8573 63.7602 79.8552 63.76C79.8323 63.7584 79.7968 63.724 79.7815 63.7086C79.772 63.6991 79.7626 63.6868 79.7588 63.6736C79.751 63.6464 79.7857 63.7234 79.8008 63.7473C79.8127 63.7662 79.855 63.813 79.8341 63.8053C79.7966 63.7916 79.7549 63.7493 79.7235 63.7244C79.7191 63.7209 79.6719 63.6775 79.6648 63.6966C79.6535 63.7274 79.699 63.7885 79.7138 63.8132C79.7246 63.8312 79.7395 63.8926 79.7368 63.8718C79.7319 63.8356 79.6994 63.8002 79.6812 63.77C79.6778 63.7643 79.6663 63.7321 79.6582 63.7286C79.6523 63.726 79.6573 63.7417 79.6588 63.7479C79.6642 63.7706 79.6723 63.7925 79.6757 63.8156C79.686 63.8856 79.698 63.8077 79.6787 63.7857C79.6666 63.7719 79.6425 63.7652 79.6256 63.7621C79.6165 63.7605 79.6182 63.7526 79.6165 63.7458C79.6161 63.7442 79.6022 63.7146 79.6086 63.7171C79.6188 63.721 79.6308 63.7325 79.6376 63.7407C79.6585 63.7655 79.6864 63.7783 79.7117 63.7978C79.7248 63.8079 79.8439 63.9028 79.854 63.8851C79.8668 63.8627 79.8526 63.8117 79.8461 63.7902C79.8214 63.7076 79.7751 63.6338 79.741 63.5551C79.7307 63.5314 79.7155 63.4589 79.7099 63.4841C79.6986 63.5349 79.7614 63.6116 79.7845 63.6506C79.8237 63.7169 79.8561 63.789 79.9042 63.8495C79.913 63.8606 79.9217 63.8858 79.9217 63.8621C79.9217 63.8413 79.9223 63.8213 79.9159 63.8011C79.9032 63.7606 79.9052 63.8146 79.909 63.8277C79.9167 63.854 79.9323 63.8776 79.9407 63.9038C79.9439 63.9138 79.9452 63.9265 79.9543 63.931" stroke="#9ED1E8" stroke-width="0.1" stroke-linecap="round"/>
<path d="M80.0468 63.9365C80.037 63.9105 79.9727 63.9466 79.9597 63.9473C79.9471 63.948 79.8707 63.9423 79.8736 63.9555C79.8777 63.9739 80.0012 63.9637 80.0223 63.9637C80.0399 63.9637 80.0575 63.9637 80.0752 63.9637C80.127 63.9637 80.0735 63.9612 80.0468 63.9582" stroke="#9ED1E8" stroke-width="0.1" stroke-linecap="round"/>
<path d="M79.8564 63.9202C79.8328 63.9202 79.8092 63.9202 79.7856 63.9202C79.7555 63.9202 79.744 63.9357 79.7856 63.9365C79.7921 63.9366 79.8574 63.9409 79.8521 63.9452C79.829 63.9641 79.7984 63.9637 79.7705 63.9637C79.7449 63.9637 79.7298 63.963 79.7068 63.9528C79.6823 63.9419 79.688 63.9171 79.6811 63.8942C79.6719 63.8636 79.661 63.8444 79.6473 63.8168C79.6394 63.8011 79.6445 63.7794 79.6388 63.7624" stroke="#9ED1E8" stroke-width="0.1" stroke-linecap="round"/>
<path d="M80.4329 63.9528C80.4329 63.9924 80.6109 63.9741 80.6408 63.9649C80.6725 63.9551 80.7075 63.9582 80.7405 63.9582C80.7691 63.9582 80.7917 63.9474 80.819 63.9474" stroke="#9ED1E8" stroke-width="0.1" stroke-linecap="round"/>
<path d="M80.7266 63.8281C80.7298 63.8457 80.7549 63.8636 80.7696 63.873C80.7986 63.8917 80.7121 63.868 80.704 63.8672C80.6855 63.8653 80.7393 63.8798 80.7576 63.8828C80.7792 63.8864 80.7657 63.8588 80.7657 63.8438" stroke="#9ED1E8" stroke-width="0.1" stroke-linecap="round"/>
<path d="M80.7852 63.8164C80.7867 63.8439 80.8228 63.8737 80.8359 63.8967C80.8415 63.9065 80.8503 63.9149 80.8572 63.9238C80.8643 63.9329 80.8792 63.9383 80.8828 63.9492" stroke="#9ED1E8" stroke-width="0.1" stroke-linecap="round"/>
<path d="M80.0859 64.1289C80.0873 64.1181 80.1891 64.125 80.2031 64.125C80.2288 64.125 80.2545 64.125 80.2802 64.125C80.2828 64.125 80.3081 64.1257 80.3058 64.127C80.2924 64.1344 80.2637 64.1307 80.2487 64.1319C80.2288 64.1336 80.2144 64.1365 80.1955 64.1421C80.1775 64.1475 80.1691 64.1448 80.1966 64.1445C80.2211 64.1443 80.2444 64.1373 80.2687 64.1367C80.3037 64.1359 80.198 64.1431 80.1636 64.1367C80.1357 64.1315 80.1 64.1252 80.0738 64.115C80.0591 64.1093 80.0397 64.0967 80.043 64.0781C80.0441 64.0716 80.1224 64.0714 80.1328 64.0705C80.1522 64.0689 80.1722 64.0703 80.1916 64.0703C80.2297 64.0703 80.2634 64.0642 80.3008 64.0595C80.3571 64.0523 80.4177 64.0586 80.4744 64.0586C80.5176 64.0586 80.5591 64.0508 80.6024 64.0508C80.6428 64.0508 80.682 64.0469 80.7227 64.0469" stroke="#84C5DC" stroke-width="0.1" stroke-linecap="round"/>
<path d="M79.7773 64.0898C79.8093 64.0757 79.8507 64.0795 79.8845 64.0773C79.9204 64.0749 79.9558 64.0742 79.9918 64.0742C80.0358 64.0742 80.0793 64.0703 80.123 64.0703C80.2012 64.0703 80.2804 64.0664 80.3594 64.0664" stroke="#84C5DC" stroke-width="0.1" stroke-linecap="round"/>
<path d="M100.82 64.1523C100.792 64.1523 100.766 64.1406 100.738 64.1406C100.725 64.1406 100.711 64.1341 100.697 64.1319C100.69 64.1309 100.648 64.1286 100.671 64.125C100.71 64.1191 100.75 64.1208 100.789 64.1148C100.819 64.1101 100.846 64.1016 100.877 64.1016C100.893 64.1016 100.909 64.1016 100.925 64.1016C100.939 64.1016 100.884 64.1016 100.877 64.1016C100.833 64.1016 100.789 64.1016 100.745 64.1016C100.736 64.1016 100.718 64.1016 100.718 64.1016C100.718 64.1016 100.733 64.1009 100.74 64.0996C100.8 64.0893 100.86 64.0825 100.919 64.0712C100.963 64.0628 100.83 64.0703 100.785 64.0703C100.783 64.0703 100.765 64.0703 100.775 64.0703C100.799 64.0703 100.823 64.0703 100.847 64.0703C100.891 64.0703 100.936 64.0703 100.98 64.0703C101.02 64.0703 100.968 64.0625 100.955 64.0625C100.937 64.0625 100.923 64.0586 100.905 64.0586C100.835 64.0586 100.765 64.0586 100.695 64.0586C100.662 64.0586 100.63 64.0625 100.597 64.0625C100.585 64.0625 100.583 64.0603 100.592 64.0686C100.604 64.081 100.613 64.0961 100.625 64.1092C100.65 64.137 100.671 64.1778 100.688 64.2114C100.691 64.2176 100.692 64.2248 100.696 64.2305C100.699 64.2348 100.709 64.2389 100.71 64.2439C100.712 64.2487 100.697 64.2417 100.696 64.2413C100.685 64.2343 100.676 64.2228 100.667 64.2135C100.651 64.1983 100.622 64.181 100.614 64.161C100.611 64.1516 100.614 64.1453 100.621 64.1569C100.628 64.168 100.631 64.18 100.636 64.1914C100.641 64.2004 100.649 64.207 100.652 64.2166C100.656 64.2255 100.662 64.2309 100.645 64.2248C100.629 64.2192 100.617 64.2026 100.606 64.1905C100.596 64.1788 100.604 64.1569 100.596 64.1426C100.588 64.1291 100.557 64.0984 100.571 64.1033C100.583 64.1072 100.585 64.1373 100.594 64.1463C100.603 64.1559 100.608 64.1686 100.615 64.1797C100.621 64.189 100.632 64.198 100.636 64.2079C100.638 64.2138 100.653 64.2289 100.645 64.2257C100.627 64.2181 100.603 64.1964 100.588 64.1816C100.576 64.1694 100.576 64.148 100.569 64.1328C100.564 64.1205 100.563 64.1079 100.559 64.0955C100.556 64.0871 100.55 64.0767 100.545 64.0694C100.539 64.0612 100.531 64.0609 100.527 64.0508" stroke="#84C5DC" stroke-width="0.1" stroke-linecap="round"/>
<path d="M100.957 64.0703C100.991 64.0703 100.955 64.0597 100.942 64.0525C100.939 64.0508 100.929 64.0508 100.932 64.0508C100.942 64.0508 100.951 64.0508 100.961 64.0508C100.972 64.0508 100.983 64.0508 100.994 64.0508C101.007 64.0508 101.04 64.0476 101.008 64.0547" stroke="#84C5DC" stroke-width="0.1" stroke-linecap="round"/>
<path d="M100.918 64.0664C100.869 64.0447 100.796 64.0547 100.744 64.0547C100.717 64.0547 100.69 64.0547 100.663 64.0547C100.638 64.0547 100.614 64.0625 100.59 64.0625" stroke="#84C5DC" stroke-width="0.1" stroke-linecap="round"/>
<path d="M100.59 64.1641C100.59 64.1796 100.568 64.1426 100.566 64.1367C100.558 64.1217 100.547 64.1113 100.538 64.0977C100.529 64.0832 100.503 64.043 100.484 64.043" stroke="#84C5DC" stroke-width="0.1" stroke-linecap="round"/>
<path d="M101.039 63.9062C101.029 63.9075 101.053 63.9172 101.057 63.9177C101.068 63.9192 101.079 63.918 101.09 63.918C101.115 63.918 101.118 63.9297 101.089 63.9297C101.073 63.9297 101.058 63.9426 101.046 63.9523C101.042 63.9552 101.03 63.9531 101.045 63.9531C101.059 63.9531 101.073 63.9546 101.087 63.9523C101.113 63.9477 101.141 63.9472 101.167 63.9453C101.185 63.9441 101.202 63.9375 101.22 63.9375C101.261 63.9375 101.303 63.9336 101.345 63.9336C101.386 63.9336 101.313 63.9397 101.304 63.9423C101.287 63.947 101.271 63.9444 101.254 63.9453C101.239 63.9461 101.223 63.9526 101.208 63.9531C101.199 63.9534 101.191 63.9557 101.191 63.9449C101.191 63.9262 101.185 63.9088 101.181 63.8906C101.176 63.8632 101.18 63.8378 101.211 63.8305C101.246 63.8221 101.292 63.8198 101.329 63.8259C101.342 63.8281 101.362 63.8301 101.359 63.8474C101.357 63.862 101.315 63.8438 101.309 63.8407C101.303 63.837 101.27 63.8055 101.282 63.8246C101.286 63.8321 101.312 63.8748 101.301 63.8828C101.283 63.8965 101.234 63.8512 101.222 63.8405C101.205 63.8258 101.264 63.8607 101.271 63.865C101.29 63.8764 101.311 63.8883 101.331 63.8976C101.343 63.9029 101.326 63.8766 101.322 63.8665C101.315 63.8485 101.308 63.8304 101.304 63.8116C101.3 63.7939 101.339 63.813 101.344 63.8168C101.36 63.8306 101.373 63.8484 101.383 63.8672C101.395 63.8895 101.364 63.8403 101.362 63.8361C101.351 63.8163 101.341 63.7917 101.337 63.7695C101.333 63.7517 101.367 63.7943 101.371 63.7986C101.38 63.8103 101.393 63.8256 101.398 63.8398C101.4 63.8485 101.41 63.8559 101.41 63.8648C101.41 63.8652 101.404 63.8529 101.404 63.8524C101.394 63.8348 101.384 63.8174 101.374 63.8003C101.363 63.7838 101.372 63.7782 101.383 63.7934C101.402 63.8225 101.421 63.8584 101.437 63.8895C101.447 63.9105 101.418 63.8467 101.406 63.8264C101.401 63.8166 101.391 63.8077 101.391 63.7949C101.391 63.7767 101.383 63.7568 101.398 63.7851C101.41 63.8053 101.415 63.833 101.424 63.855C101.431 63.8752 101.438 63.8937 101.451 63.9117C101.458 63.9217 101.468 63.9423 101.468 63.9549C101.468 63.9622 101.41 63.9539 101.404 63.9533C101.378 63.9506 101.351 63.9531 101.324 63.9531C101.314 63.9531 101.31 63.9501 101.301 63.9462C101.291 63.9419 101.273 63.9453 101.262 63.9453" stroke="#9ED1E8" stroke-width="0.1" stroke-linecap="round"/>
<path d="M0.756592 14.3626C0.775739 14.5158 0.810553 14.4727 0.922844 14.5289" stroke="#9ED1E8" stroke-width="0.1" stroke-linecap="round"/>
</svg>
